%TF.GenerationSoftware,KiCad,Pcbnew,(6.0.4)*%
%TF.CreationDate,2022-11-09T14:01:57+01:00*%
%TF.ProjectId,cockTag,636f636b-5461-4672-9e6b-696361645f70,rev?*%
%TF.SameCoordinates,Original*%
%TF.FileFunction,Legend,Bot*%
%TF.FilePolarity,Positive*%
%FSLAX46Y46*%
G04 Gerber Fmt 4.6, Leading zero omitted, Abs format (unit mm)*
G04 Created by KiCad (PCBNEW (6.0.4)) date 2022-11-09 14:01:57*
%MOMM*%
%LPD*%
G01*
G04 APERTURE LIST*
%ADD10C,0.200000*%
G04 APERTURE END LIST*
%TO.C,G\u002A\u002A\u002A*%
G36*
X140780848Y-104365170D02*
G01*
X140625226Y-104535730D01*
X140435805Y-104664648D01*
X140262707Y-104732277D01*
X140010620Y-104773642D01*
X139781261Y-104748435D01*
X139602130Y-104656913D01*
X139503761Y-104536133D01*
X139438518Y-104337410D01*
X139736945Y-104337410D01*
X139793018Y-104457130D01*
X139914806Y-104510953D01*
X140097298Y-104498839D01*
X140323366Y-104421168D01*
X140360991Y-104402657D01*
X140518338Y-104279947D01*
X140599146Y-104131255D01*
X140597031Y-103977021D01*
X140505608Y-103837686D01*
X140426442Y-103784620D01*
X140254178Y-103757261D01*
X140057524Y-103820594D01*
X139846572Y-103972555D01*
X139796784Y-104032871D01*
X139739801Y-104181504D01*
X139736945Y-104337410D01*
X139438518Y-104337410D01*
X139437730Y-104335010D01*
X139447557Y-104116082D01*
X139536044Y-103910976D01*
X139735878Y-103687743D01*
X139974006Y-103539984D01*
X140230553Y-103480104D01*
X140489588Y-103514724D01*
X140588989Y-103562175D01*
X140746544Y-103699211D01*
X140860827Y-103875165D01*
X140904906Y-104055002D01*
X140890186Y-104131255D01*
X140880410Y-104181897D01*
X140780848Y-104365170D01*
G37*
G36*
X143580659Y-107729963D02*
G01*
X143623573Y-107775325D01*
X143659123Y-107854535D01*
X143642296Y-107886458D01*
X143565914Y-107984990D01*
X143438522Y-108133644D01*
X143271863Y-108318838D01*
X143077682Y-108526989D01*
X142496242Y-109139990D01*
X142797160Y-109380784D01*
X142950744Y-109510966D01*
X143061017Y-109630332D01*
X143096352Y-109719193D01*
X143064076Y-109788750D01*
X143042630Y-109805884D01*
X142965938Y-109818892D01*
X142855556Y-109775394D01*
X142699561Y-109669324D01*
X142486030Y-109494614D01*
X142407851Y-109428304D01*
X142204842Y-109261194D01*
X142012241Y-109108794D01*
X141863099Y-108997483D01*
X141718528Y-108888010D01*
X141614190Y-108779235D01*
X141589210Y-108690909D01*
X141636249Y-108610514D01*
X141677393Y-108576754D01*
X141745623Y-108569499D01*
X141854890Y-108619908D01*
X142000234Y-108710265D01*
X142147710Y-108815761D01*
X142293928Y-108930182D01*
X142898062Y-108297513D01*
X142909612Y-108285420D01*
X143130675Y-108056251D01*
X143294039Y-107893368D01*
X143410210Y-107788035D01*
X143489699Y-107731515D01*
X143543012Y-107715070D01*
X143580659Y-107729963D01*
G37*
G36*
X142113838Y-106133511D02*
G01*
X142119017Y-106156554D01*
X142083172Y-106251176D01*
X141959223Y-106375780D01*
X141872342Y-106455691D01*
X141793519Y-106570874D01*
X141771972Y-106701289D01*
X141771974Y-106869585D01*
X142090749Y-106838574D01*
X142241686Y-106822817D01*
X142407576Y-106802891D01*
X142511956Y-106787160D01*
X142606322Y-106784259D01*
X142701732Y-106832949D01*
X142735833Y-106917852D01*
X142700541Y-107008387D01*
X142587770Y-107073966D01*
X142490693Y-107090873D01*
X142318640Y-107106493D01*
X142122128Y-107114456D01*
X141783728Y-107119540D01*
X141747680Y-107408058D01*
X141730993Y-107529262D01*
X141705478Y-107679917D01*
X141684307Y-107767783D01*
X141646513Y-107807177D01*
X141548715Y-107823542D01*
X141535491Y-107821483D01*
X141491104Y-107805782D01*
X141464530Y-107764724D01*
X141452503Y-107679173D01*
X141451758Y-107529994D01*
X141459028Y-107298054D01*
X141477608Y-106788014D01*
X141357020Y-106894964D01*
X141187412Y-107043619D01*
X140901935Y-107282694D01*
X140682394Y-107448919D01*
X140526733Y-107543795D01*
X140432897Y-107568820D01*
X140421780Y-107566997D01*
X140324285Y-107519351D01*
X140317923Y-107436460D01*
X140404234Y-107331090D01*
X140421155Y-107316765D01*
X140521912Y-107230950D01*
X140676942Y-107098508D01*
X140868418Y-106934675D01*
X141078516Y-106754691D01*
X141139607Y-106702328D01*
X141348325Y-106523479D01*
X141534724Y-106363827D01*
X141680430Y-106239105D01*
X141767071Y-106165049D01*
X141781844Y-106152766D01*
X141926093Y-106067721D01*
X142042392Y-106060790D01*
X142113838Y-106133511D01*
G37*
G36*
X141191036Y-104928897D02*
G01*
X141412481Y-105059630D01*
X141431322Y-105076363D01*
X141539261Y-105213502D01*
X141614032Y-105378207D01*
X141652477Y-105547066D01*
X141651440Y-105696665D01*
X141607764Y-105803594D01*
X141518293Y-105844439D01*
X141484631Y-105840346D01*
X141424595Y-105786611D01*
X141388084Y-105653174D01*
X141386952Y-105646361D01*
X141328502Y-105416875D01*
X141239215Y-105270054D01*
X141108954Y-105189041D01*
X141079268Y-105180450D01*
X140907869Y-105186764D01*
X140737595Y-105269620D01*
X140589681Y-105409896D01*
X140485361Y-105588468D01*
X140445870Y-105786213D01*
X140447519Y-105831756D01*
X140486592Y-105949256D01*
X140598559Y-106038077D01*
X140701301Y-106119639D01*
X140752537Y-106225928D01*
X140717891Y-106320477D01*
X140648470Y-106352739D01*
X140533453Y-106317805D01*
X140374721Y-106199330D01*
X140340247Y-106167704D01*
X140201141Y-105982956D01*
X140160430Y-105784231D01*
X140215037Y-105559195D01*
X140340007Y-105318402D01*
X140525734Y-105093263D01*
X140736754Y-104950265D01*
X140962157Y-104893959D01*
X141191036Y-104928897D01*
G37*
G36*
X139861748Y-102032729D02*
G01*
X140003771Y-102073730D01*
X140126968Y-102128531D01*
X140311301Y-102284929D01*
X140414327Y-102501315D01*
X140433316Y-102773242D01*
X140423208Y-102869615D01*
X140381503Y-103043283D01*
X140313350Y-103125517D01*
X140215025Y-103122273D01*
X140213613Y-103121725D01*
X140164307Y-103082500D01*
X140149442Y-102999883D01*
X140163861Y-102846012D01*
X140177049Y-102691632D01*
X140156576Y-102573459D01*
X140090780Y-102466721D01*
X140089219Y-102464747D01*
X139985313Y-102360940D01*
X139884813Y-102299656D01*
X139810753Y-102292160D01*
X139653167Y-102334881D01*
X139483072Y-102431023D01*
X139327772Y-102560109D01*
X139214570Y-102701661D01*
X139170769Y-102835202D01*
X139171392Y-102845551D01*
X139210168Y-102952212D01*
X139290687Y-103073558D01*
X139306729Y-103093715D01*
X139372778Y-103204410D01*
X139387490Y-103284353D01*
X139343334Y-103333464D01*
X139250390Y-103330207D01*
X139138438Y-103264657D01*
X139032261Y-103146435D01*
X138954441Y-103005473D01*
X138915376Y-102806908D01*
X138971227Y-102611014D01*
X139123789Y-102403210D01*
X139188469Y-102338545D01*
X139377490Y-102189525D01*
X139563172Y-102089163D01*
X139606433Y-102072945D01*
X139747054Y-102031846D01*
X139861748Y-102032729D01*
G37*
G36*
X146476333Y-110170903D02*
G01*
X146417494Y-110360865D01*
X146381568Y-110483822D01*
X146319176Y-110621888D01*
X146207983Y-110695505D01*
X146151316Y-110709368D01*
X145885605Y-110718012D01*
X145644661Y-110628008D01*
X145431160Y-110440235D01*
X145365470Y-110348658D01*
X145271526Y-110105247D01*
X145268415Y-110001267D01*
X145548084Y-110001267D01*
X145562890Y-110155130D01*
X145636402Y-110312169D01*
X145785187Y-110426470D01*
X145867766Y-110465320D01*
X146000485Y-110486446D01*
X146090337Y-110420010D01*
X146152264Y-110259203D01*
X146188004Y-110087252D01*
X146203943Y-109825556D01*
X146159752Y-109630193D01*
X146057601Y-109507977D01*
X145899657Y-109465724D01*
X145782511Y-109496641D01*
X145660549Y-109609478D01*
X145577731Y-109784808D01*
X145548084Y-110001267D01*
X145268415Y-110001267D01*
X145263727Y-109844561D01*
X145340541Y-109590358D01*
X145500435Y-109366395D01*
X145557319Y-109313418D01*
X145693395Y-109232494D01*
X145859572Y-109210704D01*
X146080160Y-109236347D01*
X146233106Y-109321488D01*
X146334219Y-109476736D01*
X146399808Y-109632729D01*
X146461897Y-109373916D01*
X146473816Y-109320904D01*
X146495179Y-109102193D01*
X146446070Y-108943468D01*
X146316021Y-108826462D01*
X146094564Y-108732908D01*
X145947923Y-108679139D01*
X145835736Y-108614062D01*
X145801291Y-108547100D01*
X145809361Y-108494019D01*
X145877073Y-108433428D01*
X146017141Y-108435800D01*
X146233876Y-108500673D01*
X146352411Y-108551369D01*
X146579330Y-108700704D01*
X146721288Y-108883098D01*
X146770368Y-109089853D01*
X146762977Y-109163893D01*
X146728173Y-109334825D01*
X146671331Y-109552450D01*
X146599676Y-109787245D01*
X146587210Y-109825556D01*
X146548763Y-109943710D01*
X146476333Y-110170903D01*
G37*
G36*
X145244831Y-109187129D02*
G01*
X145132521Y-109308595D01*
X144992731Y-109500480D01*
X144876711Y-109700731D01*
X144839688Y-109775332D01*
X144763520Y-109915408D01*
X144700976Y-109990613D01*
X144630851Y-110020989D01*
X144531940Y-110026578D01*
X144479352Y-110024180D01*
X144258167Y-109958809D01*
X144075206Y-109818827D01*
X143941041Y-109624079D01*
X143866244Y-109394414D01*
X143863611Y-109261769D01*
X144146764Y-109261769D01*
X144168090Y-109467568D01*
X144286755Y-109656989D01*
X144375407Y-109736609D01*
X144445824Y-109769443D01*
X144453995Y-109766497D01*
X144513762Y-109707612D01*
X144603911Y-109592178D01*
X144707314Y-109445282D01*
X144806839Y-109292005D01*
X144885360Y-109157432D01*
X144925745Y-109066648D01*
X144927161Y-109043961D01*
X144884738Y-108945164D01*
X144790214Y-108835096D01*
X144669937Y-108746709D01*
X144607307Y-108726649D01*
X144470148Y-108753663D01*
X144334232Y-108860587D01*
X144218726Y-109035167D01*
X144146764Y-109261769D01*
X143863611Y-109261769D01*
X143861386Y-109149679D01*
X143937039Y-108909719D01*
X143955528Y-108876729D01*
X144073024Y-108724054D01*
X144223308Y-108585348D01*
X144377069Y-108484562D01*
X144504996Y-108445644D01*
X144661269Y-108473388D01*
X144861220Y-108573601D01*
X145026317Y-108725147D01*
X145115929Y-108807021D01*
X145261939Y-108853676D01*
X145376079Y-108873224D01*
X145420344Y-108938537D01*
X145376877Y-109043961D01*
X145376508Y-109044857D01*
X145244831Y-109187129D01*
G37*
G36*
X150071609Y-87751278D02*
G01*
X150151729Y-87796070D01*
X150175315Y-87886180D01*
X150170094Y-87939145D01*
X150126978Y-87992521D01*
X150014070Y-88034140D01*
X149847404Y-88073022D01*
X149668526Y-88102706D01*
X149484226Y-88125190D01*
X149504404Y-88999742D01*
X149504788Y-89016460D01*
X149510519Y-89334822D01*
X149510179Y-89565513D01*
X149502516Y-89722140D01*
X149486274Y-89818313D01*
X149460205Y-89867639D01*
X149423053Y-89883729D01*
X149360633Y-89881998D01*
X149279485Y-89851126D01*
X149268811Y-89816654D01*
X149253148Y-89692971D01*
X149238114Y-89497777D01*
X149225007Y-89248980D01*
X149215129Y-88964488D01*
X149192812Y-88119891D01*
X148809764Y-88162405D01*
X148609111Y-88178952D01*
X148446732Y-88172523D01*
X148358912Y-88134674D01*
X148332550Y-88062667D01*
X148335599Y-88035387D01*
X148380631Y-87971960D01*
X148489440Y-87924666D01*
X148674748Y-87889363D01*
X148949276Y-87861913D01*
X149051445Y-87853520D01*
X149313159Y-87828136D01*
X149557111Y-87799709D01*
X149741280Y-87772959D01*
X149920916Y-87748141D01*
X150071609Y-87751278D01*
G37*
G36*
X153048054Y-88729369D02*
G01*
X153217361Y-88841102D01*
X153337872Y-89038840D01*
X153419771Y-89297473D01*
X153447640Y-89587999D01*
X153399541Y-89838328D01*
X153279971Y-90037526D01*
X153093425Y-90174663D01*
X152844397Y-90238806D01*
X152819243Y-90240297D01*
X152645946Y-90219649D01*
X152476611Y-90156056D01*
X152330025Y-90063840D01*
X152224976Y-89957324D01*
X152180249Y-89850830D01*
X152214633Y-89758683D01*
X152241330Y-89737774D01*
X152321778Y-89733319D01*
X152441949Y-89801856D01*
X152447567Y-89805873D01*
X152651169Y-89926814D01*
X152818122Y-89967496D01*
X152967516Y-89932673D01*
X152994582Y-89917756D01*
X153111314Y-89792094D01*
X153173128Y-89613104D01*
X153178529Y-89409323D01*
X153126025Y-89209288D01*
X153014123Y-89041537D01*
X152980753Y-89010499D01*
X152870039Y-88955043D01*
X152728060Y-88971410D01*
X152597738Y-88986386D01*
X152486351Y-88947458D01*
X152443993Y-88856103D01*
X152470268Y-88784203D01*
X152576300Y-88727575D01*
X152772315Y-88699109D01*
X152819054Y-88697096D01*
X153048054Y-88729369D01*
G37*
G36*
X155880300Y-89908570D02*
G01*
X156035002Y-89953218D01*
X156203032Y-90066001D01*
X156302057Y-90244012D01*
X156341119Y-90498829D01*
X156341109Y-90590290D01*
X156312824Y-90829321D01*
X156252493Y-91031585D01*
X156233371Y-91073643D01*
X156162998Y-91202138D01*
X156081273Y-91282615D01*
X155951856Y-91354048D01*
X155825992Y-91402411D01*
X155585059Y-91422164D01*
X155359200Y-91342007D01*
X155153492Y-91163152D01*
X155092493Y-91087859D01*
X154999181Y-90935567D01*
X154989225Y-90829228D01*
X155061045Y-90761995D01*
X155062431Y-90761384D01*
X155125031Y-90754256D01*
X155193962Y-90802164D01*
X155292569Y-90921163D01*
X155392407Y-91039651D01*
X155490444Y-91108736D01*
X155612444Y-91137686D01*
X155614944Y-91137978D01*
X155761819Y-91137908D01*
X155876218Y-91110178D01*
X155933887Y-91063110D01*
X156015108Y-90921472D01*
X156067401Y-90733214D01*
X156085937Y-90532123D01*
X156065891Y-90351984D01*
X156002435Y-90226585D01*
X155994677Y-90219707D01*
X155891837Y-90171705D01*
X155749097Y-90142836D01*
X155723500Y-90139926D01*
X155598524Y-90108357D01*
X155531592Y-90062232D01*
X155528089Y-89996282D01*
X155596113Y-89932864D01*
X155721626Y-89900052D01*
X155880300Y-89908570D01*
G37*
G36*
X147215934Y-90030104D02*
G01*
X147209460Y-89864800D01*
X147172623Y-89630270D01*
X147113063Y-89406633D01*
X147086491Y-89327703D01*
X147041301Y-89174795D01*
X147038574Y-89145123D01*
X147364841Y-89145123D01*
X147382720Y-89290493D01*
X147413474Y-89467481D01*
X147451483Y-89646239D01*
X147491117Y-89796919D01*
X147526755Y-89889669D01*
X147541796Y-89906713D01*
X147641653Y-89946575D01*
X147786322Y-89957566D01*
X147933869Y-89935017D01*
X147992340Y-89904915D01*
X148070224Y-89788827D01*
X148090725Y-89617114D01*
X148048953Y-89411992D01*
X147939606Y-89200875D01*
X147779004Y-89070433D01*
X147561155Y-89020401D01*
X147442168Y-89026788D01*
X147369159Y-89053363D01*
X147365464Y-89061224D01*
X147364841Y-89145123D01*
X147038574Y-89145123D01*
X147032348Y-89077392D01*
X147060455Y-89006327D01*
X147126444Y-88932434D01*
X147165325Y-88896944D01*
X147367951Y-88786767D01*
X147596306Y-88756377D01*
X147828882Y-88799215D01*
X148044170Y-88908723D01*
X148220658Y-89078342D01*
X148336841Y-89301514D01*
X148347095Y-89337915D01*
X148371970Y-89528955D01*
X148363783Y-89733302D01*
X148326324Y-89913294D01*
X148263385Y-90031271D01*
X148133266Y-90122155D01*
X147921018Y-90192680D01*
X147697117Y-90202262D01*
X147575858Y-90207734D01*
X147439624Y-90277988D01*
X147345092Y-90344875D01*
X147267609Y-90329992D01*
X147223798Y-90224710D01*
X147223426Y-90223815D01*
X147215934Y-90030104D01*
G37*
G36*
X145649497Y-90205274D02*
G01*
X145556779Y-90029346D01*
X145495239Y-89916998D01*
X145441729Y-89775253D01*
X145445605Y-89756189D01*
X145746292Y-89756189D01*
X145816211Y-89913686D01*
X145912527Y-90060545D01*
X146086303Y-90256863D01*
X146255694Y-90363758D01*
X146414345Y-90377946D01*
X146555906Y-90296140D01*
X146616879Y-90191443D01*
X146623331Y-90025415D01*
X146557915Y-89842877D01*
X146425819Y-89668854D01*
X146306552Y-89570526D01*
X146143528Y-89511463D01*
X145957498Y-89535847D01*
X145871635Y-89566768D01*
X145762850Y-89645676D01*
X145746292Y-89756189D01*
X145445605Y-89756189D01*
X145468300Y-89644573D01*
X145498567Y-89594700D01*
X145680341Y-89400702D01*
X145914356Y-89293971D01*
X146198100Y-89275779D01*
X146309304Y-89294084D01*
X146547850Y-89399773D01*
X146737698Y-89578591D01*
X146863131Y-89812656D01*
X146908434Y-90084083D01*
X146905672Y-90161767D01*
X146866673Y-90315209D01*
X146764576Y-90448122D01*
X146590465Y-90585969D01*
X146422112Y-90633914D01*
X146240837Y-90595635D01*
X146084155Y-90531710D01*
X146223260Y-90758622D01*
X146252317Y-90804535D01*
X146391863Y-90974293D01*
X146538824Y-91051803D01*
X146713518Y-91042580D01*
X146936265Y-90952139D01*
X147077976Y-90886469D01*
X147203321Y-90853157D01*
X147275026Y-90876150D01*
X147306854Y-90919390D01*
X147301818Y-91010114D01*
X147201098Y-91107480D01*
X147001971Y-91214862D01*
X146882307Y-91262832D01*
X146616255Y-91317692D01*
X146386904Y-91289099D01*
X146206001Y-91177606D01*
X146158873Y-91120026D01*
X146062616Y-90974549D01*
X145948925Y-90780471D01*
X145833568Y-90563778D01*
X145815293Y-90527874D01*
X145758931Y-90417140D01*
X145649497Y-90205274D01*
G37*
G36*
X151937694Y-87784164D02*
G01*
X151951171Y-87919703D01*
X151949335Y-87941797D01*
X151938769Y-88073724D01*
X151922797Y-88276997D01*
X151903251Y-88528238D01*
X151881957Y-88804068D01*
X151875785Y-88884292D01*
X151854665Y-89158343D01*
X151835752Y-89403038D01*
X151820914Y-89594260D01*
X151812015Y-89707890D01*
X151810254Y-89727021D01*
X151768391Y-89889157D01*
X151691056Y-89976293D01*
X151589114Y-89975392D01*
X151569158Y-89962760D01*
X151527597Y-89870506D01*
X151527134Y-89694753D01*
X151532062Y-89576813D01*
X151506352Y-89439630D01*
X151429370Y-89332176D01*
X151310366Y-89213175D01*
X151106886Y-89460511D01*
X151011299Y-89578381D01*
X150908087Y-89709773D01*
X150845403Y-89794704D01*
X150780727Y-89863482D01*
X150678833Y-89896518D01*
X150594685Y-89860596D01*
X150555622Y-89771623D01*
X150588992Y-89645510D01*
X150645680Y-89564911D01*
X150756295Y-89432207D01*
X150889620Y-89287621D01*
X151125310Y-89044741D01*
X150946786Y-88815238D01*
X150872882Y-88717735D01*
X150784394Y-88593164D01*
X150737234Y-88516063D01*
X150736102Y-88461483D01*
X150793684Y-88380757D01*
X150804491Y-88372862D01*
X150846980Y-88352578D01*
X150894803Y-88362820D01*
X150963801Y-88414809D01*
X151069813Y-88519768D01*
X151228679Y-88688915D01*
X151576193Y-89062706D01*
X151585837Y-88901812D01*
X151600653Y-88676766D01*
X151633464Y-88305852D01*
X151671164Y-88033074D01*
X151714146Y-87855918D01*
X151762802Y-87771870D01*
X151771952Y-87765299D01*
X151874582Y-87730050D01*
X151937694Y-87784164D01*
G37*
G36*
X153782086Y-90283232D02*
G01*
X153776345Y-90157871D01*
X154027971Y-90157871D01*
X154075972Y-90320152D01*
X154186528Y-90427716D01*
X154349698Y-90461595D01*
X154443200Y-90443139D01*
X154584355Y-90340676D01*
X154678627Y-90156838D01*
X154720340Y-89900219D01*
X154712896Y-89822364D01*
X154648089Y-89676972D01*
X154539867Y-89564710D01*
X154415562Y-89519705D01*
X154291387Y-89567763D01*
X154170911Y-89705370D01*
X154065979Y-89920146D01*
X154052463Y-89959840D01*
X154027971Y-90157871D01*
X153776345Y-90157871D01*
X153771524Y-90052586D01*
X153814306Y-89827486D01*
X153888884Y-89657267D01*
X154037887Y-89449765D01*
X154217892Y-89305408D01*
X154409273Y-89243459D01*
X154564234Y-89259306D01*
X154753141Y-89354830D01*
X154900997Y-89516584D01*
X154983459Y-89724186D01*
X155000005Y-90023339D01*
X154936105Y-90296203D01*
X154797040Y-90519950D01*
X154589395Y-90678636D01*
X154485554Y-90715370D01*
X154277247Y-90729879D01*
X154072019Y-90686271D01*
X153913686Y-90590276D01*
X153870176Y-90525948D01*
X153841279Y-90483226D01*
X153782086Y-90283232D01*
G37*
G36*
X160470903Y-103723668D02*
G01*
X160660865Y-103782507D01*
X160783822Y-103818433D01*
X160921888Y-103880825D01*
X160995505Y-103992018D01*
X161009368Y-104048685D01*
X161018012Y-104314396D01*
X160928008Y-104555340D01*
X160740235Y-104768841D01*
X160648658Y-104834531D01*
X160405247Y-104928475D01*
X160144561Y-104936274D01*
X159890358Y-104859460D01*
X159666395Y-104699566D01*
X159613418Y-104642682D01*
X159532494Y-104506606D01*
X159510704Y-104340429D01*
X159515364Y-104300344D01*
X159765724Y-104300344D01*
X159796641Y-104417490D01*
X159909478Y-104539452D01*
X160084808Y-104622270D01*
X160301267Y-104651917D01*
X160455130Y-104637111D01*
X160612169Y-104563599D01*
X160726470Y-104414814D01*
X160765320Y-104332235D01*
X160786446Y-104199516D01*
X160720010Y-104109664D01*
X160559203Y-104047737D01*
X160387252Y-104011997D01*
X160125556Y-103996058D01*
X159930193Y-104040249D01*
X159807977Y-104142400D01*
X159765724Y-104300344D01*
X159515364Y-104300344D01*
X159536347Y-104119841D01*
X159621488Y-103966895D01*
X159776736Y-103865782D01*
X159932729Y-103800193D01*
X159673916Y-103738104D01*
X159620904Y-103726185D01*
X159402193Y-103704822D01*
X159243468Y-103753931D01*
X159126462Y-103883980D01*
X159032908Y-104105437D01*
X158979139Y-104252078D01*
X158914062Y-104364265D01*
X158847100Y-104398710D01*
X158794019Y-104390640D01*
X158733428Y-104322928D01*
X158735800Y-104182860D01*
X158800673Y-103966125D01*
X158851369Y-103847590D01*
X159000704Y-103620671D01*
X159183098Y-103478713D01*
X159389853Y-103429633D01*
X159463893Y-103437024D01*
X159634825Y-103471828D01*
X159852450Y-103528670D01*
X160087245Y-103600325D01*
X160125556Y-103612791D01*
X160243710Y-103651238D01*
X160470903Y-103723668D01*
G37*
G36*
X153169615Y-109776793D02*
G01*
X153343283Y-109818498D01*
X153425517Y-109886651D01*
X153422273Y-109984976D01*
X153421725Y-109986388D01*
X153382500Y-110035694D01*
X153299883Y-110050559D01*
X153146012Y-110036140D01*
X152991632Y-110022952D01*
X152873459Y-110043425D01*
X152766721Y-110109221D01*
X152764747Y-110110782D01*
X152660940Y-110214688D01*
X152599656Y-110315188D01*
X152592160Y-110389248D01*
X152634881Y-110546834D01*
X152731023Y-110716929D01*
X152860109Y-110872229D01*
X153001661Y-110985431D01*
X153135202Y-111029232D01*
X153145551Y-111028609D01*
X153252212Y-110989833D01*
X153373558Y-110909314D01*
X153393715Y-110893272D01*
X153504410Y-110827223D01*
X153584353Y-110812511D01*
X153633464Y-110856667D01*
X153630207Y-110949611D01*
X153564657Y-111061563D01*
X153446435Y-111167740D01*
X153305473Y-111245560D01*
X153106908Y-111284625D01*
X152911014Y-111228774D01*
X152703210Y-111076212D01*
X152638545Y-111011532D01*
X152489525Y-110822511D01*
X152389163Y-110636829D01*
X152372945Y-110593568D01*
X152331846Y-110452947D01*
X152332729Y-110338253D01*
X152373730Y-110196230D01*
X152428531Y-110073033D01*
X152584929Y-109888700D01*
X152801315Y-109785674D01*
X153073242Y-109766685D01*
X153169615Y-109776793D01*
G37*
G36*
X159487129Y-104955170D02*
G01*
X159608595Y-105067480D01*
X159800480Y-105207270D01*
X160000731Y-105323290D01*
X160075332Y-105360313D01*
X160215408Y-105436481D01*
X160290613Y-105499025D01*
X160320989Y-105569150D01*
X160326578Y-105668061D01*
X160324180Y-105720649D01*
X160258809Y-105941834D01*
X160118827Y-106124795D01*
X159924079Y-106258960D01*
X159694414Y-106333757D01*
X159449679Y-106338615D01*
X159209719Y-106262962D01*
X159176729Y-106244473D01*
X159024054Y-106126977D01*
X158885348Y-105976693D01*
X158784562Y-105822932D01*
X158745644Y-105695005D01*
X158763808Y-105592694D01*
X159026649Y-105592694D01*
X159053663Y-105729853D01*
X159160587Y-105865769D01*
X159335167Y-105981275D01*
X159561769Y-106053237D01*
X159767568Y-106031911D01*
X159956989Y-105913246D01*
X160036609Y-105824594D01*
X160069443Y-105754177D01*
X160066497Y-105746006D01*
X160007612Y-105686239D01*
X159892178Y-105596090D01*
X159745282Y-105492687D01*
X159592005Y-105393162D01*
X159457432Y-105314641D01*
X159366648Y-105274256D01*
X159343961Y-105272840D01*
X159245164Y-105315263D01*
X159135096Y-105409787D01*
X159046709Y-105530064D01*
X159026649Y-105592694D01*
X158763808Y-105592694D01*
X158773388Y-105538732D01*
X158873601Y-105338781D01*
X159025147Y-105173684D01*
X159107021Y-105084072D01*
X159153676Y-104938062D01*
X159173224Y-104823922D01*
X159238537Y-104779657D01*
X159343961Y-104823124D01*
X159344857Y-104823493D01*
X159487129Y-104955170D01*
G37*
G36*
X157308387Y-107499460D02*
G01*
X157373966Y-107612231D01*
X157390873Y-107709308D01*
X157406493Y-107881361D01*
X157414456Y-108077873D01*
X157419540Y-108416273D01*
X157708058Y-108452321D01*
X157829262Y-108469008D01*
X157979917Y-108494523D01*
X158067783Y-108515694D01*
X158107177Y-108553488D01*
X158123542Y-108651286D01*
X158121483Y-108664510D01*
X158105782Y-108708897D01*
X158064724Y-108735471D01*
X157979173Y-108747498D01*
X157829994Y-108748243D01*
X157598054Y-108740973D01*
X157088014Y-108722393D01*
X157194964Y-108842981D01*
X157343619Y-109012589D01*
X157582694Y-109298066D01*
X157748919Y-109517607D01*
X157843795Y-109673268D01*
X157868820Y-109767104D01*
X157866997Y-109778221D01*
X157819351Y-109875716D01*
X157736460Y-109882078D01*
X157631090Y-109795767D01*
X157616765Y-109778846D01*
X157530950Y-109678089D01*
X157398508Y-109523059D01*
X157234675Y-109331583D01*
X157054691Y-109121485D01*
X157002328Y-109060394D01*
X156823479Y-108851676D01*
X156663827Y-108665277D01*
X156539105Y-108519571D01*
X156465049Y-108432930D01*
X156452766Y-108418157D01*
X156367721Y-108273908D01*
X156360790Y-108157609D01*
X156433511Y-108086163D01*
X156456554Y-108080984D01*
X156551176Y-108116829D01*
X156675780Y-108240778D01*
X156755691Y-108327659D01*
X156870874Y-108406482D01*
X157001289Y-108428029D01*
X157169585Y-108428027D01*
X157138574Y-108109252D01*
X157122817Y-107958315D01*
X157102891Y-107792425D01*
X157087160Y-107688045D01*
X157084259Y-107593679D01*
X157132949Y-107498269D01*
X157217852Y-107464168D01*
X157308387Y-107499460D01*
G37*
G36*
X154665170Y-109419153D02*
G01*
X154835730Y-109574775D01*
X154964648Y-109764196D01*
X155032277Y-109937294D01*
X155073642Y-110189381D01*
X155048435Y-110418740D01*
X154956913Y-110597871D01*
X154836133Y-110696240D01*
X154635010Y-110762271D01*
X154416082Y-110752444D01*
X154210976Y-110663957D01*
X153987743Y-110464123D01*
X153839984Y-110225995D01*
X153780104Y-109969448D01*
X153783261Y-109945823D01*
X154057261Y-109945823D01*
X154120594Y-110142477D01*
X154272555Y-110353429D01*
X154332871Y-110403217D01*
X154481504Y-110460200D01*
X154637410Y-110463056D01*
X154757130Y-110406983D01*
X154810953Y-110285195D01*
X154798839Y-110102703D01*
X154721168Y-109876635D01*
X154702657Y-109839010D01*
X154579947Y-109681663D01*
X154431255Y-109600855D01*
X154277021Y-109602970D01*
X154137686Y-109694393D01*
X154084620Y-109773559D01*
X154057261Y-109945823D01*
X153783261Y-109945823D01*
X153814724Y-109710413D01*
X153862175Y-109611012D01*
X153999211Y-109453457D01*
X154175165Y-109339174D01*
X154355002Y-109295095D01*
X154431255Y-109309815D01*
X154481897Y-109319591D01*
X154665170Y-109419153D01*
G37*
G36*
X155996665Y-108548561D02*
G01*
X156103594Y-108592237D01*
X156144439Y-108681708D01*
X156140346Y-108715370D01*
X156086611Y-108775406D01*
X155953174Y-108811917D01*
X155946361Y-108813049D01*
X155716875Y-108871499D01*
X155570054Y-108960786D01*
X155489041Y-109091047D01*
X155480450Y-109120733D01*
X155486764Y-109292132D01*
X155569620Y-109462406D01*
X155709896Y-109610320D01*
X155888468Y-109714640D01*
X156086213Y-109754131D01*
X156131756Y-109752482D01*
X156249256Y-109713409D01*
X156338077Y-109601442D01*
X156419639Y-109498700D01*
X156525928Y-109447464D01*
X156620477Y-109482110D01*
X156652739Y-109551531D01*
X156617805Y-109666548D01*
X156499330Y-109825280D01*
X156467704Y-109859754D01*
X156282956Y-109998860D01*
X156084231Y-110039571D01*
X155859195Y-109984964D01*
X155618402Y-109859994D01*
X155393263Y-109674267D01*
X155250265Y-109463247D01*
X155193959Y-109237844D01*
X155228897Y-109008965D01*
X155359630Y-108787520D01*
X155376363Y-108768679D01*
X155513502Y-108660740D01*
X155678207Y-108585969D01*
X155847066Y-108547524D01*
X155996665Y-108548561D01*
G37*
G36*
X158186458Y-106557705D02*
G01*
X158284990Y-106634087D01*
X158433644Y-106761479D01*
X158618838Y-106928138D01*
X158826989Y-107122319D01*
X159439990Y-107703759D01*
X159680784Y-107402841D01*
X159810966Y-107249257D01*
X159930332Y-107138984D01*
X160019193Y-107103649D01*
X160088750Y-107135925D01*
X160105884Y-107157371D01*
X160118892Y-107234063D01*
X160075394Y-107344445D01*
X159969324Y-107500440D01*
X159794614Y-107713971D01*
X159728304Y-107792150D01*
X159561194Y-107995159D01*
X159408794Y-108187760D01*
X159297483Y-108336902D01*
X159188010Y-108481473D01*
X159079235Y-108585811D01*
X158990909Y-108610791D01*
X158910514Y-108563752D01*
X158876754Y-108522608D01*
X158869499Y-108454378D01*
X158919908Y-108345111D01*
X159010265Y-108199767D01*
X159115761Y-108052291D01*
X159230182Y-107906073D01*
X158597513Y-107301939D01*
X158585420Y-107290389D01*
X158356251Y-107069326D01*
X158193368Y-106905962D01*
X158088035Y-106789791D01*
X158031515Y-106710302D01*
X158015070Y-106656989D01*
X158029963Y-106619342D01*
X158075325Y-106576428D01*
X158154535Y-106540878D01*
X158186458Y-106557705D01*
G37*
D10*
%TO.C,BT1*%
X150200000Y-109000000D02*
X150200000Y-107250000D01*
X150200000Y-107250000D02*
X149450000Y-108250000D01*
X150950000Y-108250000D02*
X150200000Y-107250000D01*
X160200000Y-100000000D02*
G75*
G03*
X160200000Y-100000000I-10000000J0D01*
G01*
%TD*%
M02*
