%TF.GenerationSoftware,KiCad,Pcbnew,(6.0.4)*%
%TF.CreationDate,2022-11-09T14:01:57+01:00*%
%TF.ProjectId,cockTag,636f636b-5461-4672-9e6b-696361645f70,rev?*%
%TF.SameCoordinates,Original*%
%TF.FileFunction,Soldermask,Top*%
%TF.FilePolarity,Negative*%
%FSLAX46Y46*%
G04 Gerber Fmt 4.6, Leading zero omitted, Abs format (unit mm)*
G04 Created by KiCad (PCBNEW (6.0.4)) date 2022-11-09 14:01:57*
%MOMM*%
%LPD*%
G01*
G04 APERTURE LIST*
G04 Aperture macros list*
%AMRoundRect*
0 Rectangle with rounded corners*
0 $1 Rounding radius*
0 $2 $3 $4 $5 $6 $7 $8 $9 X,Y pos of 4 corners*
0 Add a 4 corners polygon primitive as box body*
4,1,4,$2,$3,$4,$5,$6,$7,$8,$9,$2,$3,0*
0 Add four circle primitives for the rounded corners*
1,1,$1+$1,$2,$3*
1,1,$1+$1,$4,$5*
1,1,$1+$1,$6,$7*
1,1,$1+$1,$8,$9*
0 Add four rect primitives between the rounded corners*
20,1,$1+$1,$2,$3,$4,$5,0*
20,1,$1+$1,$4,$5,$6,$7,0*
20,1,$1+$1,$6,$7,$8,$9,0*
20,1,$1+$1,$8,$9,$2,$3,0*%
%AMHorizOval*
0 Thick line with rounded ends*
0 $1 width*
0 $2 $3 position (X,Y) of the first rounded end (center of the circle)*
0 $4 $5 position (X,Y) of the second rounded end (center of the circle)*
0 Add line between two ends*
20,1,$1,$2,$3,$4,$5,0*
0 Add two circle primitives to create the rounded ends*
1,1,$1,$2,$3*
1,1,$1,$4,$5*%
%AMRotRect*
0 Rectangle, with rotation*
0 The origin of the aperture is its center*
0 $1 length*
0 $2 width*
0 $3 Rotation angle, in degrees counterclockwise*
0 Add horizontal line*
21,1,$1,$2,0,0,$3*%
G04 Aperture macros list end*
%ADD10RoundRect,0.140000X-0.170000X0.140000X-0.170000X-0.140000X0.170000X-0.140000X0.170000X0.140000X0*%
%ADD11RotRect,2.000000X2.000000X210.000000*%
%ADD12R,0.550000X0.250000*%
%ADD13RoundRect,0.140000X0.170000X-0.140000X0.170000X0.140000X-0.170000X0.140000X-0.170000X-0.140000X0*%
%ADD14RoundRect,0.135000X0.135000X0.185000X-0.135000X0.185000X-0.135000X-0.185000X0.135000X-0.185000X0*%
%ADD15RoundRect,0.147500X-0.147500X-0.172500X0.147500X-0.172500X0.147500X0.172500X-0.147500X0.172500X0*%
%ADD16RotRect,0.450000X0.700000X120.000000*%
%ADD17RoundRect,0.140000X0.219203X0.021213X0.021213X0.219203X-0.219203X-0.021213X-0.021213X-0.219203X0*%
%ADD18RoundRect,0.050000X-0.050000X0.350000X-0.050000X-0.350000X0.050000X-0.350000X0.050000X0.350000X0*%
%ADD19RoundRect,0.050000X-0.350000X0.050000X-0.350000X-0.050000X0.350000X-0.050000X0.350000X0.050000X0*%
%ADD20R,4.600000X4.600000*%
%ADD21R,1.800000X1.000000*%
%ADD22RoundRect,0.135000X-0.135000X-0.185000X0.135000X-0.185000X0.135000X0.185000X-0.135000X0.185000X0*%
%ADD23RoundRect,0.140000X-0.140000X-0.170000X0.140000X-0.170000X0.140000X0.170000X-0.140000X0.170000X0*%
%ADD24RoundRect,0.225000X-0.335876X-0.017678X-0.017678X-0.335876X0.335876X0.017678X0.017678X0.335876X0*%
%ADD25RoundRect,0.135000X-0.185000X0.135000X-0.185000X-0.135000X0.185000X-0.135000X0.185000X0.135000X0*%
%ADD26RoundRect,0.147500X0.226274X0.017678X0.017678X0.226274X-0.226274X-0.017678X-0.017678X-0.226274X0*%
%ADD27RotRect,1.000000X1.000000X150.000000*%
%ADD28HorizOval,1.000000X0.000000X0.000000X0.000000X0.000000X0*%
%ADD29RoundRect,0.135000X-0.227715X0.024413X-0.092715X-0.209413X0.227715X-0.024413X0.092715X0.209413X0*%
%ADD30RotRect,1.400000X1.200000X225.000000*%
%ADD31RoundRect,0.135000X0.185000X-0.135000X0.185000X0.135000X-0.185000X0.135000X-0.185000X-0.135000X0*%
%ADD32RoundRect,0.140000X0.140000X0.170000X-0.140000X0.170000X-0.140000X-0.170000X0.140000X-0.170000X0*%
%ADD33RoundRect,0.147500X0.017678X-0.226274X0.226274X-0.017678X-0.017678X0.226274X-0.226274X0.017678X0*%
%ADD34RoundRect,0.147500X0.147500X0.172500X-0.147500X0.172500X-0.147500X-0.172500X0.147500X-0.172500X0*%
%ADD35C,2.200000*%
%ADD36RoundRect,0.250000X-0.707107X-0.212132X-0.212132X-0.707107X0.707107X0.212132X0.212132X0.707107X0*%
%ADD37R,0.250000X0.275000*%
%ADD38R,0.275000X0.250000*%
G04 APERTURE END LIST*
D10*
%TO.C,C8*%
X155450000Y-91470000D03*
X155450000Y-92430000D03*
%TD*%
D11*
%TO.C,BZ1*%
X146381089Y-99318911D03*
X140318911Y-102818911D03*
X143818911Y-108881089D03*
X149881089Y-105381089D03*
%TD*%
D12*
%TO.C,B1*%
X151725000Y-99400000D03*
X151725000Y-98900000D03*
X151725000Y-98400000D03*
X150875000Y-98400000D03*
X150875000Y-98900000D03*
X150875000Y-99400000D03*
%TD*%
D13*
%TO.C,C4*%
X148600000Y-99380000D03*
X148600000Y-98420000D03*
%TD*%
D10*
%TO.C,C1*%
X144900000Y-94370000D03*
X144900000Y-95330000D03*
%TD*%
D14*
%TO.C,R5*%
X149610000Y-88400000D03*
X148590000Y-88400000D03*
%TD*%
D15*
%TO.C,D2*%
X149315000Y-89500000D03*
X150285000Y-89500000D03*
%TD*%
D16*
%TO.C,Q1*%
X141391025Y-99862917D03*
X140741025Y-98737083D03*
X139333975Y-100300000D03*
%TD*%
D17*
%TO.C,C6*%
X153389411Y-102889411D03*
X152710589Y-102210589D03*
%TD*%
D18*
%TO.C,U2*%
X153100000Y-91050000D03*
X152700000Y-91050000D03*
X152300000Y-91050000D03*
X151900000Y-91050000D03*
X151500000Y-91050000D03*
X151100000Y-91050000D03*
X150700000Y-91050000D03*
X150300000Y-91050000D03*
X149900000Y-91050000D03*
X149500000Y-91050000D03*
X149100000Y-91050000D03*
X148700000Y-91050000D03*
D19*
X147950000Y-91800000D03*
X147950000Y-92200000D03*
X147950000Y-92600000D03*
X147950000Y-93000000D03*
X147950000Y-93400000D03*
X147950000Y-93800000D03*
X147950000Y-94200000D03*
X147950000Y-94600000D03*
X147950000Y-95000000D03*
X147950000Y-95400000D03*
X147950000Y-95800000D03*
X147950000Y-96200000D03*
D18*
X148700000Y-96950000D03*
X149100000Y-96950000D03*
X149500000Y-96950000D03*
X149900000Y-96950000D03*
X150300000Y-96950000D03*
X150700000Y-96950000D03*
X151100000Y-96950000D03*
X151500000Y-96950000D03*
X151900000Y-96950000D03*
X152300000Y-96950000D03*
X152700000Y-96950000D03*
X153100000Y-96950000D03*
D19*
X153850000Y-96200000D03*
X153850000Y-95800000D03*
X153850000Y-95400000D03*
X153850000Y-95000000D03*
X153850000Y-94600000D03*
X153850000Y-94200000D03*
X153850000Y-93800000D03*
X153850000Y-93400000D03*
X153850000Y-93000000D03*
X153850000Y-92600000D03*
X153850000Y-92200000D03*
X153850000Y-91800000D03*
D20*
X150900000Y-94000000D03*
%TD*%
D21*
%TO.C,Y1*%
X157350000Y-94250000D03*
X157350000Y-91750000D03*
%TD*%
D22*
%TO.C,R4*%
X150790000Y-88400000D03*
X151810000Y-88400000D03*
%TD*%
D23*
%TO.C,C13*%
X153920000Y-89500000D03*
X154880000Y-89500000D03*
%TD*%
D13*
%TO.C,C10*%
X155450000Y-94330000D03*
X155450000Y-93370000D03*
%TD*%
D24*
%TO.C,C3*%
X154551992Y-100151992D03*
X155648008Y-101248008D03*
%TD*%
D25*
%TO.C,R6*%
X146000000Y-94590000D03*
X146000000Y-95610000D03*
%TD*%
D17*
%TO.C,C11*%
X160339411Y-94239411D03*
X159660589Y-93560589D03*
%TD*%
D23*
%TO.C,C14*%
X153620000Y-98600000D03*
X154580000Y-98600000D03*
%TD*%
D26*
%TO.C,L1*%
X155492947Y-104992947D03*
X154807053Y-104307053D03*
%TD*%
D27*
%TO.C,J1*%
X139450000Y-96745449D03*
D28*
X140085000Y-95645597D03*
X140720000Y-94545744D03*
X141355000Y-93445892D03*
%TD*%
D29*
%TO.C,R3*%
X142245000Y-98358327D03*
X142755000Y-99241673D03*
%TD*%
D23*
%TO.C,C5*%
X155420000Y-95600000D03*
X156380000Y-95600000D03*
%TD*%
D30*
%TO.C,Y2*%
X159276777Y-95521142D03*
X157721142Y-97076777D03*
X158923223Y-98278858D03*
X160478858Y-96723223D03*
%TD*%
D31*
%TO.C,R1*%
X146400000Y-93710000D03*
X146400000Y-92690000D03*
%TD*%
D25*
%TO.C,R2*%
X146400000Y-90690000D03*
X146400000Y-91710000D03*
%TD*%
D32*
%TO.C,C12*%
X147780000Y-89500000D03*
X146820000Y-89500000D03*
%TD*%
D10*
%TO.C,C7*%
X149700000Y-98920000D03*
X149700000Y-99880000D03*
%TD*%
D33*
%TO.C,L2*%
X153407053Y-104292947D03*
X154092947Y-103607053D03*
%TD*%
D34*
%TO.C,D1*%
X152485000Y-89500000D03*
X151515000Y-89500000D03*
%TD*%
D23*
%TO.C,C9*%
X156120000Y-99000000D03*
X157080000Y-99000000D03*
%TD*%
D35*
%TO.C,H1*%
X148400000Y-110700000D03*
%TD*%
D10*
%TO.C,C2*%
X143800000Y-94370000D03*
X143800000Y-95330000D03*
%TD*%
D36*
%TO.C,AE1*%
X156474695Y-105974695D03*
X158525305Y-108025305D03*
%TD*%
D37*
%TO.C,U1*%
X145250000Y-91737500D03*
X144750000Y-91737500D03*
X144250000Y-91737500D03*
X143750000Y-91737500D03*
D38*
X143737500Y-92250000D03*
X143737500Y-92750000D03*
D37*
X143750000Y-93262500D03*
X144250000Y-93262500D03*
X144750000Y-93262500D03*
X145250000Y-93262500D03*
D38*
X145262500Y-92750000D03*
X145262500Y-92250000D03*
%TD*%
G36*
X152095899Y-99254101D02*
G01*
X152100000Y-99264000D01*
X152100000Y-99647215D01*
X152100816Y-99649184D01*
X152102785Y-99650000D01*
X152536315Y-99650000D01*
X152546214Y-99654101D01*
X152550311Y-99663682D01*
X152574937Y-100747239D01*
X152576984Y-100751920D01*
X155572999Y-103651085D01*
X155575051Y-103651896D01*
X155576926Y-103651104D01*
X159990041Y-99256488D01*
X159999949Y-99252408D01*
X160009878Y-99256567D01*
X162554007Y-101830983D01*
X162558049Y-101840907D01*
X162557782Y-101843543D01*
X162307443Y-103107850D01*
X162307055Y-103109364D01*
X161885558Y-104438091D01*
X161885003Y-104439552D01*
X161318021Y-105713014D01*
X161317306Y-105714404D01*
X160611912Y-106916719D01*
X160611047Y-106918021D01*
X159776030Y-108034211D01*
X159775026Y-108035409D01*
X158820780Y-109051577D01*
X158819648Y-109052655D01*
X157758085Y-109956117D01*
X157756840Y-109957062D01*
X156601181Y-110736564D01*
X156599838Y-110737364D01*
X155364502Y-111383182D01*
X155363079Y-111383828D01*
X154063441Y-111887923D01*
X154061954Y-111888406D01*
X152714228Y-112244492D01*
X152712697Y-112244806D01*
X152602612Y-112261061D01*
X152592220Y-112258450D01*
X152590552Y-112256993D01*
X149809723Y-109409955D01*
X149805739Y-109400008D01*
X149809896Y-109390217D01*
X154225232Y-105025294D01*
X154226031Y-105023396D01*
X154225174Y-105021345D01*
X150879289Y-101754188D01*
X150875071Y-101744004D01*
X150899835Y-99663833D01*
X150904053Y-99653983D01*
X150913834Y-99650000D01*
X151347215Y-99650000D01*
X151349184Y-99649184D01*
X151350000Y-99647215D01*
X151350000Y-99264000D01*
X151354101Y-99254101D01*
X151364000Y-99250000D01*
X152086000Y-99250000D01*
X152095899Y-99254101D01*
G37*
M02*
