%TF.GenerationSoftware,KiCad,Pcbnew,(6.0.4)*%
%TF.CreationDate,2022-11-09T14:01:57+01:00*%
%TF.ProjectId,cockTag,636f636b-5461-4672-9e6b-696361645f70,rev?*%
%TF.SameCoordinates,Original*%
%TF.FileFunction,Copper,L4,Bot*%
%TF.FilePolarity,Positive*%
%FSLAX46Y46*%
G04 Gerber Fmt 4.6, Leading zero omitted, Abs format (unit mm)*
G04 Created by KiCad (PCBNEW (6.0.4)) date 2022-11-09 14:01:57*
%MOMM*%
%LPD*%
G01*
G04 APERTURE LIST*
G04 Aperture macros list*
%AMHorizOval*
0 Thick line with rounded ends*
0 $1 width*
0 $2 $3 position (X,Y) of the first rounded end (center of the circle)*
0 $4 $5 position (X,Y) of the second rounded end (center of the circle)*
0 Add line between two ends*
20,1,$1,$2,$3,$4,$5,0*
0 Add two circle primitives to create the rounded ends*
1,1,$1,$2,$3*
1,1,$1,$4,$5*%
%AMRotRect*
0 Rectangle, with rotation*
0 The origin of the aperture is its center*
0 $1 length*
0 $2 width*
0 $3 Rotation angle, in degrees counterclockwise*
0 Add horizontal line*
21,1,$1,$2,0,0,$3*%
G04 Aperture macros list end*
%TA.AperFunction,ComponentPad*%
%ADD10RotRect,1.000000X1.000000X150.000000*%
%TD*%
%TA.AperFunction,ComponentPad*%
%ADD11HorizOval,1.000000X0.000000X0.000000X0.000000X0.000000X0*%
%TD*%
%TA.AperFunction,SMDPad,CuDef*%
%ADD12R,1.300000X3.200000*%
%TD*%
%TA.AperFunction,SMDPad,CuDef*%
%ADD13O,12.500000X12.500000*%
%TD*%
%TA.AperFunction,ViaPad*%
%ADD14C,0.450000*%
%TD*%
%TA.AperFunction,ViaPad*%
%ADD15C,0.600000*%
%TD*%
%TA.AperFunction,Conductor*%
%ADD16C,0.400000*%
%TD*%
%TA.AperFunction,Conductor*%
%ADD17C,0.200000*%
%TD*%
G04 APERTURE END LIST*
D10*
%TO.P,J1,1,Pin_1*%
%TO.N,GND*%
X139450000Y-96745449D03*
D11*
%TO.P,J1,2,Pin_2*%
%TO.N,SWDCLK*%
X140085000Y-95645597D03*
%TO.P,J1,3,Pin_3*%
%TO.N,SWDIO*%
X140720000Y-94545744D03*
%TO.P,J1,4,Pin_4*%
%TO.N,BOOT*%
X141355000Y-93445892D03*
%TD*%
D12*
%TO.P,BT1,1,+*%
%TO.N,VCC*%
X138750000Y-100000000D03*
X161650000Y-100000000D03*
D13*
%TO.P,BT1,2,-*%
%TO.N,GND*%
X150200000Y-100000000D03*
%TD*%
D14*
%TO.N,GND*%
X151800000Y-104500000D03*
X151175000Y-101525000D03*
X153331910Y-101793192D03*
X156000000Y-94900000D03*
X150850000Y-108000000D03*
X155000000Y-101800000D03*
X145800000Y-110500000D03*
X146800000Y-106500000D03*
X154575000Y-103050000D03*
X145299702Y-91300130D03*
X155275500Y-98600000D03*
X146000000Y-89500000D03*
X152650000Y-98900000D03*
X150200000Y-88400000D03*
X143700000Y-90800000D03*
X154186058Y-104738942D03*
X151124459Y-100725000D03*
X152200000Y-106700000D03*
X150900000Y-95200000D03*
X148200000Y-107900000D03*
X153400000Y-104300000D03*
X150900000Y-92800000D03*
X148800000Y-101500000D03*
X141800000Y-104500000D03*
X149100000Y-99900000D03*
X153475000Y-105400000D03*
X151124459Y-99950000D03*
X157800000Y-101050000D03*
X152825000Y-106050000D03*
X155226422Y-103673558D03*
X144385816Y-93782565D03*
X152100000Y-97800000D03*
X149700000Y-94000000D03*
X147100000Y-91200000D03*
X145800000Y-108500000D03*
X152325000Y-99950000D03*
X152100000Y-94000000D03*
X144800000Y-104500000D03*
X147800000Y-104500000D03*
X152325541Y-100650000D03*
X156525000Y-102350000D03*
X152300000Y-102850000D03*
X151775000Y-102125000D03*
X152675000Y-101325000D03*
X157150000Y-101700000D03*
X155875000Y-103000000D03*
X146800000Y-102500000D03*
X152943130Y-103481870D03*
X153969370Y-102430630D03*
X144370000Y-95330000D03*
X151550000Y-107350000D03*
X160900000Y-94800000D03*
X150900000Y-94000000D03*
X140800000Y-106500000D03*
X155300000Y-90400000D03*
X142700000Y-92400000D03*
X143800000Y-102500000D03*
X143800000Y-106500000D03*
%TO.N,VCC*%
X148400000Y-89800000D03*
D15*
X139600000Y-99200000D03*
X161700000Y-100000000D03*
D14*
X144600000Y-90300000D03*
X143262289Y-93620533D03*
X160182886Y-98461746D03*
X153350000Y-89750000D03*
%TO.N,GYRO_INT*%
X147038691Y-93152422D03*
X142900000Y-91500000D03*
%TD*%
D16*
%TO.N,VCC*%
X138900000Y-99850000D02*
X138900000Y-100000000D01*
X139550000Y-99200000D02*
X138750000Y-100000000D01*
X139600000Y-99200000D02*
X139550000Y-99200000D01*
D17*
%TO.N,GYRO_INT*%
X147038691Y-93152422D02*
X144552422Y-93152422D01*
X144552422Y-93152422D02*
X142900000Y-91500000D01*
%TD*%
M02*
