%TF.GenerationSoftware,KiCad,Pcbnew,(6.0.11)*%
%TF.CreationDate,2023-02-20T14:16:24+01:00*%
%TF.ProjectId,cockTag,636f636b-5461-4672-9e6b-696361645f70,rev?*%
%TF.SameCoordinates,Original*%
%TF.FileFunction,Legend,Top*%
%TF.FilePolarity,Positive*%
%FSLAX46Y46*%
G04 Gerber Fmt 4.6, Leading zero omitted, Abs format (unit mm)*
G04 Created by KiCad (PCBNEW (6.0.11)) date 2023-02-20 14:16:24*
%MOMM*%
%LPD*%
G01*
G04 APERTURE LIST*
%ADD10C,0.150000*%
%ADD11C,0.120000*%
%ADD12C,0.127000*%
%ADD13C,0.200000*%
%ADD14C,0.100000*%
G04 APERTURE END LIST*
D10*
X141124914Y-103863323D02*
X141124914Y-104470466D01*
X141089200Y-104591895D01*
X141017771Y-104672847D01*
X140910628Y-104713323D01*
X140839200Y-104713323D01*
X141839200Y-104713323D02*
X141482057Y-104713323D01*
X141482057Y-103863323D01*
X142517771Y-104632371D02*
X142482057Y-104672847D01*
X142374914Y-104713323D01*
X142303485Y-104713323D01*
X142196342Y-104672847D01*
X142124914Y-104591895D01*
X142089200Y-104510942D01*
X142053485Y-104349038D01*
X142053485Y-104227609D01*
X142089200Y-104065704D01*
X142124914Y-103984752D01*
X142196342Y-103903800D01*
X142303485Y-103863323D01*
X142374914Y-103863323D01*
X142482057Y-103903800D01*
X142517771Y-103944276D01*
X143053485Y-103863323D02*
X143053485Y-104470466D01*
X143017771Y-104591895D01*
X142946342Y-104672847D01*
X142839200Y-104713323D01*
X142767771Y-104713323D01*
X143767771Y-104713323D02*
X143410628Y-104713323D01*
X143410628Y-103863323D01*
X144446342Y-104632371D02*
X144410628Y-104672847D01*
X144303485Y-104713323D01*
X144232057Y-104713323D01*
X144124914Y-104672847D01*
X144053485Y-104591895D01*
X144017771Y-104510942D01*
X143982057Y-104349038D01*
X143982057Y-104227609D01*
X144017771Y-104065704D01*
X144053485Y-103984752D01*
X144124914Y-103903800D01*
X144232057Y-103863323D01*
X144303485Y-103863323D01*
X144410628Y-103903800D01*
X144446342Y-103944276D01*
X144982057Y-103863323D02*
X144982057Y-104470466D01*
X144946342Y-104591895D01*
X144874914Y-104672847D01*
X144767771Y-104713323D01*
X144696342Y-104713323D01*
X145696342Y-104713323D02*
X145339200Y-104713323D01*
X145339200Y-103863323D01*
X146374914Y-104632371D02*
X146339200Y-104672847D01*
X146232057Y-104713323D01*
X146160628Y-104713323D01*
X146053485Y-104672847D01*
X145982057Y-104591895D01*
X145946342Y-104510942D01*
X145910628Y-104349038D01*
X145910628Y-104227609D01*
X145946342Y-104065704D01*
X145982057Y-103984752D01*
X146053485Y-103903800D01*
X146160628Y-103863323D01*
X146232057Y-103863323D01*
X146339200Y-103903800D01*
X146374914Y-103944276D01*
X146910628Y-103863323D02*
X146910628Y-104470466D01*
X146874914Y-104591895D01*
X146803485Y-104672847D01*
X146696342Y-104713323D01*
X146624914Y-104713323D01*
X147624914Y-104713323D02*
X147267771Y-104713323D01*
X147267771Y-103863323D01*
X148303485Y-104632371D02*
X148267771Y-104672847D01*
X148160628Y-104713323D01*
X148089200Y-104713323D01*
X147982057Y-104672847D01*
X147910628Y-104591895D01*
X147874914Y-104510942D01*
X147839200Y-104349038D01*
X147839200Y-104227609D01*
X147874914Y-104065704D01*
X147910628Y-103984752D01*
X147982057Y-103903800D01*
X148089200Y-103863323D01*
X148160628Y-103863323D01*
X148267771Y-103903800D01*
X148303485Y-103944276D01*
%TO.C,BZ1*%
X146870382Y-101428297D02*
X147530211Y-101047344D01*
X147390773Y-101567735D02*
X147009821Y-100907906D01*
D11*
%TO.C,C8*%
X155810000Y-91842164D02*
X155810000Y-92057836D01*
X155090000Y-91842164D02*
X155090000Y-92057836D01*
%TO.C,BZ1*%
X149867211Y-103657051D02*
X147867211Y-100192949D01*
X140332789Y-104542949D02*
X142332789Y-108007051D01*
X145542949Y-108867211D02*
X149007051Y-106867211D01*
X144657051Y-99332789D02*
X141192949Y-101332789D01*
D12*
%TO.C,B1*%
X151700000Y-99740000D02*
X150900000Y-99740000D01*
X150900000Y-98060000D02*
X151700000Y-98060000D01*
D13*
X152750000Y-99400000D02*
G75*
G03*
X152750000Y-99400000I-100000J0D01*
G01*
D11*
%TO.C,C4*%
X148240000Y-99007836D02*
X148240000Y-98792164D01*
X148960000Y-99007836D02*
X148960000Y-98792164D01*
%TO.C,C1*%
X144540000Y-94742164D02*
X144540000Y-94957836D01*
X145260000Y-94742164D02*
X145260000Y-94957836D01*
%TO.C,R5*%
X149253641Y-88780000D02*
X148946359Y-88780000D01*
X149253641Y-88020000D02*
X148946359Y-88020000D01*
D14*
%TO.C,D2*%
X148760000Y-89500000D02*
G75*
G03*
X148760000Y-89500000I-50000J0D01*
G01*
D11*
%TO.C,Q1*%
X140208897Y-98455411D02*
X138987801Y-99160411D01*
X139317801Y-99731987D02*
X138987801Y-99160411D01*
X140147801Y-101169589D02*
X141905833Y-100154589D01*
X140147801Y-101169589D02*
X139817801Y-100598013D01*
%TO.C,C6*%
X152871693Y-102880810D02*
X152719190Y-102728307D01*
X153380810Y-102371693D02*
X153228307Y-102219190D01*
%TO.C,U2*%
X147790000Y-90890000D02*
X148340000Y-90890000D01*
X147790000Y-96560000D02*
X147790000Y-97110000D01*
X147790000Y-91440000D02*
X147790000Y-90890000D01*
X154010000Y-96560000D02*
X154010000Y-97110000D01*
X154010000Y-97110000D02*
X153460000Y-97110000D01*
X154010000Y-91440000D02*
X154010000Y-90890000D01*
X147790000Y-97110000D02*
X148340000Y-97110000D01*
%TO.C,kibuzzard-6367CDC3*%
G36*
X143547152Y-96853732D02*
G01*
X143589122Y-96894987D01*
X143613232Y-96958745D01*
X143621269Y-97040005D01*
X143612518Y-97121444D01*
X143586264Y-97185738D01*
X143542866Y-97227528D01*
X143482680Y-97241459D01*
X143421065Y-97227528D01*
X143379096Y-97185738D01*
X143354985Y-97121444D01*
X143346949Y-97040005D01*
X143355700Y-96958745D01*
X143381953Y-96894987D01*
X143425351Y-96853732D01*
X143485537Y-96839980D01*
X143547152Y-96853732D01*
G37*
G36*
X147384120Y-97675323D02*
G01*
X142010686Y-97675323D01*
X142201281Y-97040005D01*
X142475411Y-97040005D01*
X142480948Y-97111800D01*
X142497557Y-97178594D01*
X142525953Y-97238601D01*
X142566851Y-97290036D01*
X142620608Y-97332184D01*
X142687581Y-97364331D01*
X142768484Y-97384691D01*
X142864031Y-97391478D01*
X142930825Y-97389156D01*
X142988332Y-97382191D01*
X143078344Y-97358616D01*
X143052626Y-97214313D01*
X142970473Y-97232886D01*
X142884034Y-97238601D01*
X142776699Y-97225385D01*
X142706154Y-97185738D01*
X142667042Y-97122873D01*
X142654005Y-97040005D01*
X142654209Y-97038576D01*
X143168355Y-97038576D01*
X143174070Y-97114836D01*
X143191215Y-97183594D01*
X143218897Y-97244138D01*
X143256223Y-97295751D01*
X143302300Y-97337542D01*
X143356236Y-97368618D01*
X143417493Y-97387906D01*
X143485537Y-97394335D01*
X143553582Y-97387906D01*
X143614839Y-97368618D01*
X143668596Y-97337542D01*
X143714137Y-97295751D01*
X143750928Y-97244138D01*
X143778431Y-97183594D01*
X143795576Y-97114836D01*
X143801184Y-97040005D01*
X143904161Y-97040005D01*
X143909698Y-97111800D01*
X143926307Y-97178594D01*
X143954703Y-97238601D01*
X143995601Y-97290036D01*
X144049358Y-97332184D01*
X144116331Y-97364331D01*
X144197234Y-97384691D01*
X144292781Y-97391478D01*
X144359575Y-97389156D01*
X144417082Y-97382191D01*
X144441632Y-97375761D01*
X144645683Y-97375761D01*
X144822847Y-97375761D01*
X144822847Y-97058579D01*
X144882141Y-97123587D01*
X144945720Y-97206454D01*
X145005013Y-97295037D01*
X145050019Y-97375761D01*
X145251473Y-97375761D01*
X145197894Y-97284321D01*
X145162711Y-97232886D01*
X145124314Y-97181451D01*
X145083952Y-97130909D01*
X145042875Y-97082153D01*
X144965723Y-97000000D01*
X145029302Y-96931420D01*
X145099311Y-96854267D01*
X145167176Y-96775686D01*
X145225755Y-96704249D01*
X145014300Y-96704249D01*
X144974295Y-96767828D01*
X144926432Y-96837122D01*
X144874997Y-96906417D01*
X144822847Y-96969996D01*
X144822847Y-96637097D01*
X145305765Y-96637097D01*
X145538651Y-96637097D01*
X145538651Y-97375761D01*
X145715816Y-97375761D01*
X145715816Y-97170021D01*
X146047286Y-97170021D01*
X146067289Y-97273606D01*
X146124439Y-97342186D01*
X146213736Y-97380048D01*
X146330179Y-97391478D01*
X146419833Y-97388620D01*
X146500200Y-97380048D01*
X146614500Y-97360045D01*
X146614500Y-97018574D01*
X146745945Y-97018574D01*
X146753486Y-97109538D01*
X146776107Y-97186214D01*
X146813811Y-97248603D01*
X146866119Y-97294640D01*
X146932556Y-97322263D01*
X147013121Y-97331470D01*
X147079558Y-97324326D01*
X147147424Y-97302895D01*
X147147424Y-97330041D01*
X147140280Y-97383619D01*
X147115991Y-97427196D01*
X147068843Y-97456486D01*
X146993119Y-97467201D01*
X146878819Y-97453628D01*
X146791665Y-97424339D01*
X146758804Y-97572929D01*
X146869532Y-97602933D01*
X146928646Y-97612577D01*
X146990261Y-97615791D01*
X147096703Y-97607060D01*
X147181714Y-97580866D01*
X147245293Y-97537210D01*
X147289346Y-97475298D01*
X147315778Y-97394335D01*
X147324589Y-97294323D01*
X147324589Y-96725680D01*
X147240927Y-96705836D01*
X147161394Y-96693930D01*
X147085988Y-96689961D01*
X146988515Y-96699010D01*
X146905647Y-96726156D01*
X146837385Y-96771400D01*
X146786585Y-96835059D01*
X146756105Y-96917450D01*
X146745945Y-97018574D01*
X146614500Y-97018574D01*
X146614500Y-96959995D01*
X146600213Y-96846409D01*
X146553064Y-96760684D01*
X146465196Y-96706392D01*
X146403224Y-96691926D01*
X146327321Y-96687104D01*
X146264099Y-96689425D01*
X146203020Y-96696391D01*
X146110151Y-96717107D01*
X146134440Y-96858554D01*
X146209449Y-96841409D01*
X146305890Y-96834265D01*
X146371613Y-96842659D01*
X146414475Y-96867841D01*
X146445908Y-96951422D01*
X146445908Y-96972854D01*
X146389115Y-96964281D01*
X146324464Y-96961424D01*
X146220165Y-96972139D01*
X146131583Y-97007144D01*
X146070146Y-97071438D01*
X146047286Y-97170021D01*
X145715816Y-97170021D01*
X145715816Y-96637097D01*
X145948703Y-96637097D01*
X145948703Y-96491365D01*
X145305765Y-96491365D01*
X145305765Y-96637097D01*
X144822847Y-96637097D01*
X144822847Y-96384209D01*
X144645683Y-96414212D01*
X144645683Y-97375761D01*
X144441632Y-97375761D01*
X144507094Y-97358616D01*
X144481376Y-97214313D01*
X144399223Y-97232886D01*
X144312784Y-97238601D01*
X144205449Y-97225385D01*
X144134904Y-97185738D01*
X144095792Y-97122873D01*
X144082755Y-97040005D01*
X144094185Y-96959995D01*
X144131332Y-96896416D01*
X144199198Y-96854982D01*
X144304211Y-96839980D01*
X144393508Y-96847838D01*
X144457087Y-96865697D01*
X144495664Y-96724251D01*
X144397080Y-96695676D01*
X144288495Y-96687104D01*
X144195448Y-96694069D01*
X144116331Y-96714964D01*
X144050430Y-96747826D01*
X143997030Y-96790688D01*
X143955953Y-96842659D01*
X143927021Y-96902845D01*
X143909876Y-96969282D01*
X143904161Y-97040005D01*
X143801184Y-97040005D01*
X143801291Y-97038576D01*
X143795576Y-96963388D01*
X143778431Y-96894987D01*
X143750749Y-96834622D01*
X143713423Y-96783544D01*
X143667346Y-96742468D01*
X143613411Y-96712107D01*
X143552510Y-96693355D01*
X143485537Y-96687104D01*
X143419458Y-96693355D01*
X143358379Y-96712107D01*
X143303908Y-96742468D01*
X143257652Y-96783544D01*
X143220147Y-96834622D01*
X143191929Y-96894987D01*
X143174249Y-96963388D01*
X143168355Y-97038576D01*
X142654209Y-97038576D01*
X142665435Y-96959995D01*
X142702582Y-96896416D01*
X142770448Y-96854982D01*
X142875461Y-96839980D01*
X142964758Y-96847838D01*
X143028337Y-96865697D01*
X143066914Y-96724251D01*
X142968330Y-96695676D01*
X142859745Y-96687104D01*
X142766698Y-96694069D01*
X142687581Y-96714964D01*
X142621680Y-96747826D01*
X142568280Y-96790688D01*
X142527203Y-96842659D01*
X142498271Y-96902845D01*
X142481126Y-96969282D01*
X142475411Y-97040005D01*
X142201281Y-97040005D01*
X142415880Y-96324677D01*
X147789314Y-96324677D01*
X147384120Y-97675323D01*
G37*
G36*
X146404474Y-97086439D02*
G01*
X146445908Y-97091440D01*
X146445908Y-97245745D01*
X146398759Y-97249317D01*
X146343038Y-97250031D01*
X146254455Y-97230743D01*
X146220165Y-97165735D01*
X146231595Y-97124301D01*
X146262313Y-97100013D01*
X146307319Y-97087868D01*
X146360183Y-97084296D01*
X146404474Y-97086439D01*
G37*
G36*
X147111705Y-96834265D02*
G01*
X147147424Y-96839980D01*
X147147424Y-97162878D01*
X147102418Y-97181451D01*
X147048840Y-97188595D01*
X146954543Y-97145018D01*
X146932040Y-97091619D01*
X146924539Y-97018574D01*
X146941684Y-96915386D01*
X146993119Y-96853474D01*
X147078844Y-96832836D01*
X147111705Y-96834265D01*
G37*
%TO.C,Y1*%
X158225000Y-92325000D02*
X158225000Y-93675000D01*
X156475000Y-92325000D02*
X156475000Y-93675000D01*
%TO.C,R4*%
X151146359Y-88780000D02*
X151453641Y-88780000D01*
X151146359Y-88020000D02*
X151453641Y-88020000D01*
%TO.C,C13*%
X154292164Y-89860000D02*
X154507836Y-89860000D01*
X154292164Y-89140000D02*
X154507836Y-89140000D01*
%TO.C,C10*%
X155810000Y-93957836D02*
X155810000Y-93742164D01*
X155090000Y-93957836D02*
X155090000Y-93742164D01*
%TO.C,kibuzzard-6367D1D3*%
G36*
X149692050Y-90411455D02*
G01*
X149656490Y-90593065D01*
X149493930Y-90593065D01*
X149516333Y-90501752D01*
X149538837Y-90413741D01*
X149561443Y-90329032D01*
X149574586Y-90281915D01*
X149721260Y-90281915D01*
X149874930Y-90281915D01*
X149859690Y-90200635D01*
X149842545Y-90122530D01*
X149822225Y-90043790D01*
X149798730Y-89959335D01*
X149775235Y-90043790D01*
X149754915Y-90122530D01*
X149737135Y-90200635D01*
X149721260Y-90281915D01*
X149574586Y-90281915D01*
X149584151Y-90247625D01*
X149606960Y-90169520D01*
X149635297Y-90075183D01*
X149663157Y-89983306D01*
X149690542Y-89893890D01*
X149717450Y-89806935D01*
X149887630Y-89806935D01*
X149915530Y-89894605D01*
X149943351Y-89984894D01*
X149971093Y-90077802D01*
X149998755Y-90173330D01*
X150020726Y-90252095D01*
X150042443Y-90333452D01*
X150063906Y-90417399D01*
X150085115Y-90503936D01*
X150106070Y-90593065D01*
X149938430Y-90593065D01*
X149901600Y-90411455D01*
X149692050Y-90411455D01*
G37*
%TO.C,C3*%
X155361219Y-100239970D02*
X155560030Y-100438781D01*
X154639970Y-100961219D02*
X154838781Y-101160030D01*
%TO.C,R6*%
X145620000Y-94946359D02*
X145620000Y-95253641D01*
X146380000Y-94946359D02*
X146380000Y-95253641D01*
%TO.C,C11*%
X160330810Y-93721693D02*
X160178307Y-93569190D01*
X159821693Y-94230810D02*
X159669190Y-94078307D01*
%TO.C,C14*%
X153992164Y-98960000D02*
X154207836Y-98960000D01*
X153992164Y-98240000D02*
X154207836Y-98240000D01*
%TO.C,J1*%
X140411288Y-97300449D02*
X140031288Y-97958628D01*
X142663788Y-93399005D02*
X141968829Y-92997770D01*
X140031288Y-97958628D02*
X139070000Y-97403628D01*
X140791288Y-96642270D02*
X142663788Y-93399005D01*
X139342020Y-95805534D02*
X138868712Y-95532270D01*
X141436171Y-92690240D02*
X140741212Y-92289005D01*
X140791288Y-96642270D02*
X140317980Y-96369005D01*
X138868712Y-95532270D02*
X140741212Y-92289005D01*
%TO.C,R3*%
X142094090Y-98856943D02*
X142247731Y-99123057D01*
X142752269Y-98476943D02*
X142905910Y-98743057D01*
%TO.C,kibuzzard-6367CCB8*%
G36*
X142462842Y-95018251D02*
G01*
X142550361Y-95063831D01*
X142619375Y-95111101D01*
X142675465Y-95165756D01*
X142716635Y-95227677D01*
X142740895Y-95296744D01*
X142748152Y-95373112D01*
X142738321Y-95456937D01*
X142709536Y-95548584D01*
X142659936Y-95648424D01*
X142596404Y-95743107D01*
X142528677Y-95814334D01*
X142457769Y-95863927D01*
X142384690Y-95893706D01*
X142309701Y-95904648D01*
X142233064Y-95897728D01*
X142155479Y-95874588D01*
X142077650Y-95836871D01*
X142000342Y-95786463D01*
X141925037Y-95724014D01*
X141940744Y-95696809D01*
X142143666Y-95696809D01*
X142156562Y-95705905D01*
X142170173Y-95713764D01*
X142268835Y-95744330D01*
X142357185Y-95722748D01*
X142435624Y-95658325D01*
X142471427Y-95612385D01*
X142505269Y-95559127D01*
X142553566Y-95458329D01*
X142575446Y-95360425D01*
X142557933Y-95273601D01*
X142487534Y-95204083D01*
X142464904Y-95191844D01*
X142440846Y-95182079D01*
X142143666Y-95696809D01*
X141940744Y-95696809D01*
X142356520Y-94976663D01*
X142462842Y-95018251D01*
G37*
%TO.C,C5*%
X155792164Y-95960000D02*
X156007836Y-95960000D01*
X155792164Y-95240000D02*
X156007836Y-95240000D01*
%TO.C,Y2*%
X159347487Y-94319060D02*
X156519060Y-97147487D01*
X161680940Y-96652513D02*
X159347487Y-94319060D01*
%TO.C,R1*%
X146020000Y-93353641D02*
X146020000Y-93046359D01*
X146780000Y-93353641D02*
X146780000Y-93046359D01*
%TO.C,R2*%
X146020000Y-91046359D02*
X146020000Y-91353641D01*
X146780000Y-91046359D02*
X146780000Y-91353641D01*
%TO.C,C12*%
X147407836Y-89860000D02*
X147192164Y-89860000D01*
X147407836Y-89140000D02*
X147192164Y-89140000D01*
%TO.C,kibuzzard-6367CCBF*%
G36*
X142050424Y-95989439D02*
G01*
X142128605Y-96007974D01*
X142204983Y-96043204D01*
X142274676Y-96092515D01*
X142323282Y-96141199D01*
X142354017Y-96183691D01*
X142370810Y-96213183D01*
X142261206Y-96311582D01*
X142210750Y-96240383D01*
X142126071Y-96174170D01*
X142048660Y-96146800D01*
X141963027Y-96155101D01*
X141872929Y-96211144D01*
X141827540Y-96260829D01*
X141783359Y-96327708D01*
X141741823Y-96411238D01*
X141718183Y-96486952D01*
X141712435Y-96554850D01*
X141741711Y-96641661D01*
X141819935Y-96710127D01*
X141926161Y-96753309D01*
X142004363Y-96762163D01*
X141973426Y-96904330D01*
X141865120Y-96890468D01*
X141798649Y-96868795D01*
X141728649Y-96833949D01*
X141635780Y-96764933D01*
X141573293Y-96682662D01*
X141541190Y-96587138D01*
X141537012Y-96508114D01*
X141549845Y-96424270D01*
X141579691Y-96335607D01*
X141626549Y-96242123D01*
X141685016Y-96155857D01*
X141750403Y-96087610D01*
X141821049Y-96037041D01*
X141895296Y-96003812D01*
X141972101Y-95987939D01*
X142050424Y-95989439D01*
G37*
%TO.C,C7*%
X149340000Y-99292164D02*
X149340000Y-99507836D01*
X150060000Y-99292164D02*
X150060000Y-99507836D01*
%TO.C,kibuzzard-6367D1E2*%
G36*
X152339395Y-90473685D02*
G01*
X152273990Y-90549885D01*
X152228905Y-90574333D01*
X152176200Y-90590525D01*
X152117621Y-90599574D01*
X152054915Y-90602590D01*
X152001892Y-90601161D01*
X151946965Y-90596875D01*
X151891402Y-90589731D01*
X151836475Y-90579730D01*
X151836475Y-90461620D01*
X151992685Y-90461620D01*
X152028880Y-90465430D01*
X152067615Y-90466700D01*
X152119685Y-90462255D01*
X152164770Y-90445745D01*
X152197155Y-90411455D01*
X152209855Y-90354940D01*
X152173660Y-90273025D01*
X152076505Y-90248260D01*
X151992685Y-90248260D01*
X151992685Y-90461620D01*
X151836475Y-90461620D01*
X151836475Y-90118720D01*
X151992685Y-90118720D01*
X152053645Y-90118720D01*
X152143815Y-90092685D01*
X152174295Y-90020930D01*
X152165405Y-89975845D01*
X152141275Y-89949175D01*
X152105715Y-89936475D01*
X152063805Y-89933300D01*
X152026975Y-89934570D01*
X151992685Y-89938380D01*
X151992685Y-90118720D01*
X151836475Y-90118720D01*
X151836475Y-89816460D01*
X151934265Y-89803125D01*
X152039675Y-89797410D01*
X152120320Y-89802014D01*
X152184455Y-89815825D01*
X152272085Y-89864085D01*
X152315265Y-89930760D01*
X152326695Y-90004420D01*
X152319869Y-90057125D01*
X152299390Y-90103480D01*
X152226365Y-90172060D01*
X152293516Y-90206350D01*
X152334950Y-90250800D01*
X152356381Y-90301600D01*
X152363525Y-90354940D01*
X152357493Y-90420186D01*
X152339395Y-90473685D01*
G37*
D14*
%TO.C,D1*%
X153140000Y-89500000D02*
G75*
G03*
X153140000Y-89500000I-50000J0D01*
G01*
D11*
%TO.C,C9*%
X156492164Y-98640000D02*
X156707836Y-98640000D01*
X156492164Y-99360000D02*
X156707836Y-99360000D01*
%TO.C,C2*%
X143440000Y-94742164D02*
X143440000Y-94957836D01*
X144160000Y-94742164D02*
X144160000Y-94957836D01*
%TO.C,kibuzzard-6367CE4A*%
G36*
X143577700Y-98154280D02*
G01*
X143605640Y-98099511D01*
X143641200Y-98054585D01*
X143683427Y-98019501D01*
X143731370Y-97994260D01*
X143782805Y-97979020D01*
X143835510Y-97973940D01*
X143916508Y-97982618D01*
X143983394Y-98008653D01*
X144036170Y-98052045D01*
X144074270Y-98112088D01*
X144097130Y-98188076D01*
X144104750Y-98280010D01*
X144104115Y-98311760D01*
X144102210Y-98338430D01*
X143714860Y-98338430D01*
X143726925Y-98390659D01*
X143763120Y-98430505D01*
X143818365Y-98455746D01*
X143887580Y-98464160D01*
X143977115Y-98454000D01*
X144048870Y-98433680D01*
X144070460Y-98567030D01*
X143984100Y-98590525D01*
X143881230Y-98600050D01*
X143808999Y-98595129D01*
X143744705Y-98580365D01*
X143688825Y-98555918D01*
X143641835Y-98521945D01*
X143604211Y-98478606D01*
X143576430Y-98426060D01*
X143559285Y-98364148D01*
X143553570Y-98292710D01*
X143558644Y-98230480D01*
X143714860Y-98230480D01*
X143953620Y-98230480D01*
X143947270Y-98184125D01*
X143926950Y-98144120D01*
X143891390Y-98115545D01*
X143838050Y-98104750D01*
X143785345Y-98114910D01*
X143748515Y-98142850D01*
X143725655Y-98183490D01*
X143714860Y-98230480D01*
X143558644Y-98230480D01*
X143559602Y-98218733D01*
X143577700Y-98154280D01*
G37*
G36*
X144993750Y-98404470D02*
G01*
X144958190Y-98586080D01*
X144795630Y-98586080D01*
X144818033Y-98494767D01*
X144840537Y-98406756D01*
X144863143Y-98322047D01*
X144876286Y-98274930D01*
X145022960Y-98274930D01*
X145176630Y-98274930D01*
X145161390Y-98193650D01*
X145144245Y-98115545D01*
X145123925Y-98036805D01*
X145100430Y-97952350D01*
X145076935Y-98036805D01*
X145056615Y-98115545D01*
X145038835Y-98193650D01*
X145022960Y-98274930D01*
X144876286Y-98274930D01*
X144885851Y-98240640D01*
X144908660Y-98162535D01*
X144936997Y-98068198D01*
X144964858Y-97976321D01*
X144992242Y-97886905D01*
X145019150Y-97799950D01*
X145189330Y-97799950D01*
X145217230Y-97887620D01*
X145245051Y-97977909D01*
X145272793Y-98070817D01*
X145300455Y-98166345D01*
X145322426Y-98245110D01*
X145344143Y-98326467D01*
X145365606Y-98410414D01*
X145386815Y-98496951D01*
X145407770Y-98586080D01*
X145240130Y-98586080D01*
X145203300Y-98404470D01*
X144993750Y-98404470D01*
G37*
G36*
X143309095Y-97979020D02*
G01*
X143359260Y-97983465D01*
X143413235Y-97991085D01*
X143462130Y-98003150D01*
X143434190Y-98147930D01*
X143397995Y-98140310D01*
X143355450Y-98133325D01*
X143313540Y-98128880D01*
X143279250Y-98127610D01*
X143214480Y-98130785D01*
X143149710Y-98142850D01*
X143149710Y-98586080D01*
X142992230Y-98586080D01*
X142992230Y-98028550D01*
X143055254Y-98007912D01*
X143119865Y-97991720D01*
X143190826Y-97981242D01*
X143272900Y-97977750D01*
X143309095Y-97979020D01*
G37*
G36*
X144343351Y-98039027D02*
G01*
X144358115Y-98092050D01*
X144374466Y-98146819D01*
X144391770Y-98201905D01*
X144409709Y-98256356D01*
X144427965Y-98309220D01*
X144462890Y-98404470D01*
X144499720Y-98309220D01*
X144519881Y-98256356D01*
X144539725Y-98201905D01*
X144559093Y-98146819D01*
X144577825Y-98092050D01*
X144594494Y-98039027D01*
X144607670Y-97989180D01*
X144766420Y-97989180D01*
X144739036Y-98077564D01*
X144710223Y-98162376D01*
X144679981Y-98243617D01*
X144648310Y-98321285D01*
X144605977Y-98418158D01*
X144565337Y-98506423D01*
X144526390Y-98586080D01*
X144395580Y-98586080D01*
X144357268Y-98506423D01*
X144318533Y-98418158D01*
X144279375Y-98321285D01*
X144250205Y-98243617D01*
X144221749Y-98162376D01*
X144194007Y-98077564D01*
X144166980Y-97989180D01*
X144330810Y-97989180D01*
X144343351Y-98039027D01*
G37*
%TO.C,AE1*%
X159451615Y-107311127D02*
X156686827Y-104546339D01*
X156686827Y-104546339D02*
X155046339Y-106186827D01*
X155046339Y-106186827D02*
X157811127Y-108951615D01*
%TO.C,kibuzzard-6367CCAB*%
G36*
X143141128Y-94899292D02*
G01*
X143088100Y-94945894D01*
X142969672Y-94987505D01*
X142905586Y-94985793D01*
X142838411Y-94970380D01*
X142769342Y-94943565D01*
X142699575Y-94907639D01*
X142643070Y-94872953D01*
X142586288Y-94833983D01*
X142530604Y-94791523D01*
X142477395Y-94746367D01*
X142494847Y-94716140D01*
X142720315Y-94716140D01*
X142757116Y-94742887D01*
X142798255Y-94768471D01*
X142857400Y-94796203D01*
X142916526Y-94806508D01*
X142973014Y-94789629D01*
X143022084Y-94736387D01*
X143034099Y-94625089D01*
X142944403Y-94537558D01*
X142853665Y-94485171D01*
X142720315Y-94716140D01*
X142494847Y-94716140D01*
X142709159Y-94344940D01*
X142934628Y-94344940D01*
X143000619Y-94383040D01*
X143114503Y-94411212D01*
X143192346Y-94352585D01*
X143210900Y-94298223D01*
X143201447Y-94254271D01*
X143170890Y-94218298D01*
X143127505Y-94188667D01*
X143086842Y-94167023D01*
X143047340Y-94149716D01*
X142934628Y-94344940D01*
X142709159Y-94344940D01*
X142954439Y-93920103D01*
X143068633Y-93966785D01*
X143186315Y-94026480D01*
X143270739Y-94081867D01*
X143331535Y-94136903D01*
X143396234Y-94243914D01*
X143401306Y-94343080D01*
X143367642Y-94429963D01*
X143327312Y-94482751D01*
X143276171Y-94520133D01*
X143154256Y-94548732D01*
X143205518Y-94627822D01*
X143222591Y-94701837D01*
X143214041Y-94770224D01*
X143188436Y-94832430D01*
X143141128Y-94899292D01*
G37*
%TO.C,kibuzzard-6367CCCA*%
G36*
X141547426Y-96886058D02*
G01*
X141621204Y-96903289D01*
X141691991Y-96935703D01*
X141767870Y-96988586D01*
X141820189Y-97039413D01*
X141852162Y-97082619D01*
X141868954Y-97112112D01*
X141759350Y-97210511D01*
X141710393Y-97141001D01*
X141636588Y-97080242D01*
X141533595Y-97047175D01*
X141440557Y-97066875D01*
X141357334Y-97131011D01*
X141319711Y-97177961D01*
X141284309Y-97233206D01*
X141240901Y-97319504D01*
X141216403Y-97395274D01*
X141210815Y-97460513D01*
X141236202Y-97540130D01*
X141300756Y-97599054D01*
X141331167Y-97614961D01*
X141363006Y-97628394D01*
X141524455Y-97348756D01*
X141676647Y-97436625D01*
X141455905Y-97818961D01*
X141358288Y-97792299D01*
X141289363Y-97764877D01*
X141211945Y-97724305D01*
X141147398Y-97678584D01*
X141097288Y-97624287D01*
X141062145Y-97561928D01*
X141042497Y-97492017D01*
X141038809Y-97414823D01*
X141051545Y-97330613D01*
X141081543Y-97240078D01*
X141129642Y-97143909D01*
X141189270Y-97055633D01*
X141255282Y-96986303D01*
X141325643Y-96935157D01*
X141398319Y-96901433D01*
X141472512Y-96885083D01*
X141547426Y-96886058D01*
G37*
%TO.C,U1*%
X143390000Y-91815000D02*
X143390000Y-91390000D01*
X143390000Y-93185000D02*
X143390000Y-93610000D01*
X145610000Y-93185000D02*
X145610000Y-93610000D01*
%TD*%
M02*
