%TF.GenerationSoftware,KiCad,Pcbnew,(6.0.4)*%
%TF.CreationDate,2022-11-09T14:01:57+01:00*%
%TF.ProjectId,cockTag,636f636b-5461-4672-9e6b-696361645f70,rev?*%
%TF.SameCoordinates,Original*%
%TF.FileFunction,Copper,L1,Top*%
%TF.FilePolarity,Positive*%
%FSLAX46Y46*%
G04 Gerber Fmt 4.6, Leading zero omitted, Abs format (unit mm)*
G04 Created by KiCad (PCBNEW (6.0.4)) date 2022-11-09 14:01:57*
%MOMM*%
%LPD*%
G01*
G04 APERTURE LIST*
G04 Aperture macros list*
%AMRoundRect*
0 Rectangle with rounded corners*
0 $1 Rounding radius*
0 $2 $3 $4 $5 $6 $7 $8 $9 X,Y pos of 4 corners*
0 Add a 4 corners polygon primitive as box body*
4,1,4,$2,$3,$4,$5,$6,$7,$8,$9,$2,$3,0*
0 Add four circle primitives for the rounded corners*
1,1,$1+$1,$2,$3*
1,1,$1+$1,$4,$5*
1,1,$1+$1,$6,$7*
1,1,$1+$1,$8,$9*
0 Add four rect primitives between the rounded corners*
20,1,$1+$1,$2,$3,$4,$5,0*
20,1,$1+$1,$4,$5,$6,$7,0*
20,1,$1+$1,$6,$7,$8,$9,0*
20,1,$1+$1,$8,$9,$2,$3,0*%
%AMHorizOval*
0 Thick line with rounded ends*
0 $1 width*
0 $2 $3 position (X,Y) of the first rounded end (center of the circle)*
0 $4 $5 position (X,Y) of the second rounded end (center of the circle)*
0 Add line between two ends*
20,1,$1,$2,$3,$4,$5,0*
0 Add two circle primitives to create the rounded ends*
1,1,$1,$2,$3*
1,1,$1,$4,$5*%
%AMRotRect*
0 Rectangle, with rotation*
0 The origin of the aperture is its center*
0 $1 length*
0 $2 width*
0 $3 Rotation angle, in degrees counterclockwise*
0 Add horizontal line*
21,1,$1,$2,0,0,$3*%
G04 Aperture macros list end*
%TA.AperFunction,SMDPad,CuDef*%
%ADD10RoundRect,0.140000X-0.170000X0.140000X-0.170000X-0.140000X0.170000X-0.140000X0.170000X0.140000X0*%
%TD*%
%TA.AperFunction,SMDPad,CuDef*%
%ADD11RotRect,2.000000X2.000000X210.000000*%
%TD*%
%TA.AperFunction,SMDPad,CuDef*%
%ADD12R,0.550000X0.250000*%
%TD*%
%TA.AperFunction,SMDPad,CuDef*%
%ADD13RoundRect,0.140000X0.170000X-0.140000X0.170000X0.140000X-0.170000X0.140000X-0.170000X-0.140000X0*%
%TD*%
%TA.AperFunction,SMDPad,CuDef*%
%ADD14RoundRect,0.135000X0.135000X0.185000X-0.135000X0.185000X-0.135000X-0.185000X0.135000X-0.185000X0*%
%TD*%
%TA.AperFunction,SMDPad,CuDef*%
%ADD15RoundRect,0.147500X-0.147500X-0.172500X0.147500X-0.172500X0.147500X0.172500X-0.147500X0.172500X0*%
%TD*%
%TA.AperFunction,SMDPad,CuDef*%
%ADD16RotRect,0.450000X0.700000X120.000000*%
%TD*%
%TA.AperFunction,SMDPad,CuDef*%
%ADD17RoundRect,0.140000X0.219203X0.021213X0.021213X0.219203X-0.219203X-0.021213X-0.021213X-0.219203X0*%
%TD*%
%TA.AperFunction,SMDPad,CuDef*%
%ADD18RoundRect,0.050000X-0.050000X0.350000X-0.050000X-0.350000X0.050000X-0.350000X0.050000X0.350000X0*%
%TD*%
%TA.AperFunction,SMDPad,CuDef*%
%ADD19RoundRect,0.050000X-0.350000X0.050000X-0.350000X-0.050000X0.350000X-0.050000X0.350000X0.050000X0*%
%TD*%
%TA.AperFunction,SMDPad,CuDef*%
%ADD20R,4.600000X4.600000*%
%TD*%
%TA.AperFunction,SMDPad,CuDef*%
%ADD21R,1.800000X1.000000*%
%TD*%
%TA.AperFunction,SMDPad,CuDef*%
%ADD22RoundRect,0.135000X-0.135000X-0.185000X0.135000X-0.185000X0.135000X0.185000X-0.135000X0.185000X0*%
%TD*%
%TA.AperFunction,SMDPad,CuDef*%
%ADD23RoundRect,0.140000X-0.140000X-0.170000X0.140000X-0.170000X0.140000X0.170000X-0.140000X0.170000X0*%
%TD*%
%TA.AperFunction,SMDPad,CuDef*%
%ADD24RoundRect,0.225000X-0.335876X-0.017678X-0.017678X-0.335876X0.335876X0.017678X0.017678X0.335876X0*%
%TD*%
%TA.AperFunction,SMDPad,CuDef*%
%ADD25RoundRect,0.135000X-0.185000X0.135000X-0.185000X-0.135000X0.185000X-0.135000X0.185000X0.135000X0*%
%TD*%
%TA.AperFunction,SMDPad,CuDef*%
%ADD26RoundRect,0.147500X0.226274X0.017678X0.017678X0.226274X-0.226274X-0.017678X-0.017678X-0.226274X0*%
%TD*%
%TA.AperFunction,ComponentPad*%
%ADD27RotRect,1.000000X1.000000X150.000000*%
%TD*%
%TA.AperFunction,ComponentPad*%
%ADD28HorizOval,1.000000X0.000000X0.000000X0.000000X0.000000X0*%
%TD*%
%TA.AperFunction,SMDPad,CuDef*%
%ADD29RoundRect,0.135000X-0.227715X0.024413X-0.092715X-0.209413X0.227715X-0.024413X0.092715X0.209413X0*%
%TD*%
%TA.AperFunction,SMDPad,CuDef*%
%ADD30RotRect,1.400000X1.200000X225.000000*%
%TD*%
%TA.AperFunction,SMDPad,CuDef*%
%ADD31RoundRect,0.135000X0.185000X-0.135000X0.185000X0.135000X-0.185000X0.135000X-0.185000X-0.135000X0*%
%TD*%
%TA.AperFunction,SMDPad,CuDef*%
%ADD32RoundRect,0.140000X0.140000X0.170000X-0.140000X0.170000X-0.140000X-0.170000X0.140000X-0.170000X0*%
%TD*%
%TA.AperFunction,SMDPad,CuDef*%
%ADD33RoundRect,0.147500X0.017678X-0.226274X0.226274X-0.017678X-0.017678X0.226274X-0.226274X0.017678X0*%
%TD*%
%TA.AperFunction,SMDPad,CuDef*%
%ADD34RoundRect,0.147500X0.147500X0.172500X-0.147500X0.172500X-0.147500X-0.172500X0.147500X-0.172500X0*%
%TD*%
%TA.AperFunction,SMDPad,CuDef*%
%ADD35RoundRect,0.250000X-0.707107X-0.212132X-0.212132X-0.707107X0.707107X0.212132X0.212132X0.707107X0*%
%TD*%
%TA.AperFunction,SMDPad,CuDef*%
%ADD36R,0.250000X0.275000*%
%TD*%
%TA.AperFunction,SMDPad,CuDef*%
%ADD37R,0.275000X0.250000*%
%TD*%
%TA.AperFunction,ViaPad*%
%ADD38C,0.450000*%
%TD*%
%TA.AperFunction,ViaPad*%
%ADD39C,0.600000*%
%TD*%
%TA.AperFunction,Conductor*%
%ADD40C,0.350000*%
%TD*%
%TA.AperFunction,Conductor*%
%ADD41C,0.200000*%
%TD*%
%TA.AperFunction,Conductor*%
%ADD42C,0.300000*%
%TD*%
%TA.AperFunction,Conductor*%
%ADD43C,0.127000*%
%TD*%
%TA.AperFunction,Conductor*%
%ADD44C,0.400000*%
%TD*%
G04 APERTURE END LIST*
D10*
%TO.P,C8,1*%
%TO.N,GND*%
X155450000Y-91470000D03*
%TO.P,C8,2*%
%TO.N,XL1*%
X155450000Y-92430000D03*
%TD*%
D11*
%TO.P,BZ1,1,-*%
%TO.N,VCC*%
X146381089Y-99318911D03*
%TO.P,BZ1,2,+*%
%TO.N,Net-(BZ1-Pad2)*%
X140318911Y-102818911D03*
%TO.P,BZ1,3*%
%TO.N,N/C*%
X143818911Y-108881089D03*
%TO.P,BZ1,4*%
X149881089Y-105381089D03*
%TD*%
D12*
%TO.P,B1,1,UBAL*%
%TO.N,/MCU + RF/ANT*%
X151725000Y-99400000D03*
%TO.P,B1,2,GND*%
%TO.N,GND*%
X151725000Y-98900000D03*
%TO.P,B1,3,BAL1*%
%TO.N,/MCU + RF/ANT2*%
X151725000Y-98400000D03*
%TO.P,B1,4,BAL2*%
%TO.N,/MCU + RF/ANT1*%
X150875000Y-98400000D03*
%TO.P,B1,5,DC*%
%TO.N,VDD_PA*%
X150875000Y-98900000D03*
%TO.P,B1,6,GND*%
%TO.N,GND*%
X150875000Y-99400000D03*
%TD*%
D13*
%TO.P,C4,1*%
%TO.N,GND*%
X148600000Y-99380000D03*
%TO.P,C4,2*%
%TO.N,Net-(C4-Pad2)*%
X148600000Y-98420000D03*
%TD*%
D10*
%TO.P,C1,1*%
%TO.N,VCC*%
X144900000Y-94370000D03*
%TO.P,C1,2*%
%TO.N,GND*%
X144900000Y-95330000D03*
%TD*%
D14*
%TO.P,R5,1*%
%TO.N,GND*%
X149610000Y-88400000D03*
%TO.P,R5,2*%
%TO.N,Net-(D2-Pad1)*%
X148590000Y-88400000D03*
%TD*%
D15*
%TO.P,D2,1,K*%
%TO.N,Net-(D2-Pad1)*%
X149315000Y-89500000D03*
%TO.P,D2,2,A*%
%TO.N,/MCU + RF/LED_A*%
X150285000Y-89500000D03*
%TD*%
D16*
%TO.P,Q1,1,B*%
%TO.N,Net-(Q1-Pad1)*%
X141391025Y-99862917D03*
%TO.P,Q1,2,E*%
%TO.N,GND*%
X140741025Y-98737083D03*
%TO.P,Q1,3,C*%
%TO.N,Net-(BZ1-Pad2)*%
X139333975Y-100300000D03*
%TD*%
D17*
%TO.P,C6,1*%
%TO.N,Net-(C6-Pad1)*%
X153389411Y-102889411D03*
%TO.P,C6,2*%
%TO.N,/MCU + RF/ANT*%
X152710589Y-102210589D03*
%TD*%
D18*
%TO.P,U2,1,VDD*%
%TO.N,VCC*%
X153100000Y-91050000D03*
%TO.P,U2,2,DCC*%
%TO.N,unconnected-(U2-Pad2)*%
X152700000Y-91050000D03*
%TO.P,U2,3,P0.30*%
%TO.N,unconnected-(U2-Pad3)*%
X152300000Y-91050000D03*
%TO.P,U2,4,P0.0*%
%TO.N,unconnected-(U2-Pad4)*%
X151900000Y-91050000D03*
%TO.P,U2,5,P0.1*%
%TO.N,/MCU + RF/LED_B*%
X151500000Y-91050000D03*
%TO.P,U2,6,P0.2*%
%TO.N,unconnected-(U2-Pad6)*%
X151100000Y-91050000D03*
%TO.P,U2,7,P0.3*%
%TO.N,unconnected-(U2-Pad7)*%
X150700000Y-91050000D03*
%TO.P,U2,8,P0.4*%
%TO.N,/MCU + RF/LED_A*%
X150300000Y-91050000D03*
%TO.P,U2,9,P0.5*%
%TO.N,unconnected-(U2-Pad9)*%
X149900000Y-91050000D03*
%TO.P,U2,10,P0.6*%
%TO.N,unconnected-(U2-Pad10)*%
X149500000Y-91050000D03*
%TO.P,U2,11,P0.7*%
%TO.N,unconnected-(U2-Pad11)*%
X149100000Y-91050000D03*
%TO.P,U2,12,VDD*%
%TO.N,VCC*%
X148700000Y-91050000D03*
D19*
%TO.P,U2,13,VSS*%
%TO.N,GND*%
X147950000Y-91800000D03*
%TO.P,U2,14,P0.8*%
%TO.N,GYRO_SDA*%
X147950000Y-92200000D03*
%TO.P,U2,15,P0.9*%
%TO.N,GYRO_SCL*%
X147950000Y-92600000D03*
%TO.P,U2,16,P0.10*%
%TO.N,GYRO_INT*%
X147950000Y-93000000D03*
%TO.P,U2,17,P0.11*%
%TO.N,unconnected-(U2-Pad17)*%
X147950000Y-93400000D03*
%TO.P,U2,18,P0.12*%
%TO.N,unconnected-(U2-Pad18)*%
X147950000Y-93800000D03*
%TO.P,U2,19,P0.13*%
%TO.N,unconnected-(U2-Pad19)*%
X147950000Y-94200000D03*
%TO.P,U2,20,P0.14*%
%TO.N,unconnected-(U2-Pad20)*%
X147950000Y-94600000D03*
%TO.P,U2,21,P0.15*%
%TO.N,unconnected-(U2-Pad21)*%
X147950000Y-95000000D03*
%TO.P,U2,22,P0.16*%
%TO.N,BOOT*%
X147950000Y-95400000D03*
%TO.P,U2,23,SWDIO/~{RST}*%
%TO.N,SWDIO*%
X147950000Y-95800000D03*
%TO.P,U2,24,SWDCLK*%
%TO.N,SWDCLK*%
X147950000Y-96200000D03*
D18*
%TO.P,U2,25,P0.17*%
%TO.N,/MCU + RF/BUZZER*%
X148700000Y-96950000D03*
%TO.P,U2,26,P0.18*%
%TO.N,unconnected-(U2-Pad26)*%
X149100000Y-96950000D03*
%TO.P,U2,27,P0.19*%
%TO.N,unconnected-(U2-Pad27)*%
X149500000Y-96950000D03*
%TO.P,U2,28,P0.20*%
%TO.N,unconnected-(U2-Pad28)*%
X149900000Y-96950000D03*
%TO.P,U2,29,DEC2*%
%TO.N,Net-(C4-Pad2)*%
X150300000Y-96950000D03*
%TO.P,U2,30,VDD_PA*%
%TO.N,VDD_PA*%
X150700000Y-96950000D03*
%TO.P,U2,31,ANT1*%
%TO.N,/MCU + RF/ANT1*%
X151100000Y-96950000D03*
%TO.P,U2,32,ANT2*%
%TO.N,/MCU + RF/ANT2*%
X151500000Y-96950000D03*
%TO.P,U2,33,VSS*%
%TO.N,GND*%
X151900000Y-96950000D03*
%TO.P,U2,34,VSS*%
X152300000Y-96950000D03*
%TO.P,U2,35,AVDD*%
%TO.N,VCC*%
X152700000Y-96950000D03*
%TO.P,U2,36,AVDD*%
X153100000Y-96950000D03*
D19*
%TO.P,U2,37,XC1*%
%TO.N,/MCU + RF/XC1*%
X153850000Y-96200000D03*
%TO.P,U2,38,XC2*%
%TO.N,/MCU + RF/XC2*%
X153850000Y-95800000D03*
%TO.P,U2,39,DEC1*%
%TO.N,Net-(C5-Pad1)*%
X153850000Y-95400000D03*
%TO.P,U2,40,P0.21*%
%TO.N,unconnected-(U2-Pad40)*%
X153850000Y-95000000D03*
%TO.P,U2,41,P0.22*%
%TO.N,unconnected-(U2-Pad41)*%
X153850000Y-94600000D03*
%TO.P,U2,42,P0.23*%
%TO.N,unconnected-(U2-Pad42)*%
X153850000Y-94200000D03*
%TO.P,U2,43,P0.24*%
%TO.N,unconnected-(U2-Pad43)*%
X153850000Y-93800000D03*
%TO.P,U2,44,P0.25*%
%TO.N,unconnected-(U2-Pad44)*%
X153850000Y-93400000D03*
%TO.P,U2,45,P0.26*%
%TO.N,XL2*%
X153850000Y-93000000D03*
%TO.P,U2,46,P0.27*%
%TO.N,XL1*%
X153850000Y-92600000D03*
%TO.P,U2,47,P0.28*%
%TO.N,unconnected-(U2-Pad47)*%
X153850000Y-92200000D03*
%TO.P,U2,48,P0.29*%
%TO.N,unconnected-(U2-Pad48)*%
X153850000Y-91800000D03*
D20*
%TO.P,U2,49,EP*%
%TO.N,GND*%
X150900000Y-94000000D03*
%TD*%
D21*
%TO.P,Y1,1,1*%
%TO.N,XL2*%
X157350000Y-94250000D03*
%TO.P,Y1,2,2*%
%TO.N,XL1*%
X157350000Y-91750000D03*
%TD*%
D22*
%TO.P,R4,1*%
%TO.N,GND*%
X150790000Y-88400000D03*
%TO.P,R4,2*%
%TO.N,Net-(D1-Pad1)*%
X151810000Y-88400000D03*
%TD*%
D23*
%TO.P,C13,1*%
%TO.N,VCC*%
X153920000Y-89500000D03*
%TO.P,C13,2*%
%TO.N,GND*%
X154880000Y-89500000D03*
%TD*%
D13*
%TO.P,C10,1*%
%TO.N,GND*%
X155450000Y-94330000D03*
%TO.P,C10,2*%
%TO.N,XL2*%
X155450000Y-93370000D03*
%TD*%
D24*
%TO.P,C3,1*%
%TO.N,VCC*%
X154551992Y-100151992D03*
%TO.P,C3,2*%
%TO.N,GND*%
X155648008Y-101248008D03*
%TD*%
D25*
%TO.P,R6,1*%
%TO.N,VCC*%
X146000000Y-94590000D03*
%TO.P,R6,2*%
%TO.N,BOOT*%
X146000000Y-95610000D03*
%TD*%
D17*
%TO.P,C11,1*%
%TO.N,GND*%
X160339411Y-94239411D03*
%TO.P,C11,2*%
%TO.N,/MCU + RF/XC2*%
X159660589Y-93560589D03*
%TD*%
D23*
%TO.P,C14,1*%
%TO.N,VCC*%
X153620000Y-98600000D03*
%TO.P,C14,2*%
%TO.N,GND*%
X154580000Y-98600000D03*
%TD*%
D26*
%TO.P,L1,1*%
%TO.N,Net-(AE1-Pad1)*%
X155492947Y-104992947D03*
%TO.P,L1,2*%
%TO.N,Net-(C6-Pad1)*%
X154807053Y-104307053D03*
%TD*%
D27*
%TO.P,J1,1,Pin_1*%
%TO.N,GND*%
X139450000Y-96745449D03*
D28*
%TO.P,J1,2,Pin_2*%
%TO.N,SWDCLK*%
X140085000Y-95645597D03*
%TO.P,J1,3,Pin_3*%
%TO.N,SWDIO*%
X140720000Y-94545744D03*
%TO.P,J1,4,Pin_4*%
%TO.N,BOOT*%
X141355000Y-93445892D03*
%TD*%
D29*
%TO.P,R3,1*%
%TO.N,/MCU + RF/BUZZER*%
X142245000Y-98358327D03*
%TO.P,R3,2*%
%TO.N,Net-(Q1-Pad1)*%
X142755000Y-99241673D03*
%TD*%
D23*
%TO.P,C5,1*%
%TO.N,Net-(C5-Pad1)*%
X155420000Y-95600000D03*
%TO.P,C5,2*%
%TO.N,GND*%
X156380000Y-95600000D03*
%TD*%
D30*
%TO.P,Y2,1,1*%
%TO.N,/MCU + RF/XC2*%
X159276777Y-95521142D03*
%TO.P,Y2,2,2*%
%TO.N,GND*%
X157721142Y-97076777D03*
%TO.P,Y2,3,3*%
%TO.N,/MCU + RF/XC1*%
X158923223Y-98278858D03*
%TO.P,Y2,4,4*%
%TO.N,GND*%
X160478858Y-96723223D03*
%TD*%
D31*
%TO.P,R1,1*%
%TO.N,VCC*%
X146400000Y-93710000D03*
%TO.P,R1,2*%
%TO.N,GYRO_SCL*%
X146400000Y-92690000D03*
%TD*%
D25*
%TO.P,R2,1*%
%TO.N,VCC*%
X146400000Y-90690000D03*
%TO.P,R2,2*%
%TO.N,GYRO_SDA*%
X146400000Y-91710000D03*
%TD*%
D32*
%TO.P,C12,1*%
%TO.N,VCC*%
X147780000Y-89500000D03*
%TO.P,C12,2*%
%TO.N,GND*%
X146820000Y-89500000D03*
%TD*%
D10*
%TO.P,C7,1*%
%TO.N,VDD_PA*%
X149700000Y-98920000D03*
%TO.P,C7,2*%
%TO.N,GND*%
X149700000Y-99880000D03*
%TD*%
D33*
%TO.P,L2,1*%
%TO.N,GND*%
X153407053Y-104292947D03*
%TO.P,L2,2*%
%TO.N,Net-(C6-Pad1)*%
X154092947Y-103607053D03*
%TD*%
D34*
%TO.P,D1,1,K*%
%TO.N,Net-(D1-Pad1)*%
X152485000Y-89500000D03*
%TO.P,D1,2,A*%
%TO.N,/MCU + RF/LED_B*%
X151515000Y-89500000D03*
%TD*%
D23*
%TO.P,C9,1*%
%TO.N,GND*%
X156120000Y-99000000D03*
%TO.P,C9,2*%
%TO.N,/MCU + RF/XC1*%
X157080000Y-99000000D03*
%TD*%
D10*
%TO.P,C2,1*%
%TO.N,VCC*%
X143800000Y-94370000D03*
%TO.P,C2,2*%
%TO.N,GND*%
X143800000Y-95330000D03*
%TD*%
D35*
%TO.P,AE1,1,A*%
%TO.N,Net-(AE1-Pad1)*%
X156474695Y-105974695D03*
%TO.P,AE1,2*%
%TO.N,N/C*%
X158525305Y-108025305D03*
%TD*%
D36*
%TO.P,U1,1,ADDR*%
%TO.N,GND*%
X145250000Y-91737500D03*
%TO.P,U1,2,SDA*%
%TO.N,GYRO_SDA*%
X144750000Y-91737500D03*
%TO.P,U1,3,IO_VDD*%
%TO.N,VCC*%
X144250000Y-91737500D03*
%TO.P,U1,4,RES*%
%TO.N,GND*%
X143750000Y-91737500D03*
D37*
%TO.P,U1,5,INT*%
%TO.N,GYRO_INT*%
X143737500Y-92250000D03*
%TO.P,U1,6,GND*%
%TO.N,GND*%
X143737500Y-92750000D03*
D36*
%TO.P,U1,7,VDD*%
%TO.N,VCC*%
X143750000Y-93262500D03*
%TO.P,U1,8,GND*%
%TO.N,GND*%
X144250000Y-93262500D03*
%TO.P,U1,9,GND*%
X144750000Y-93262500D03*
%TO.P,U1,10,VDD*%
%TO.N,VCC*%
X145250000Y-93262500D03*
D37*
%TO.P,U1,11,IO_VDD*%
X145262500Y-92750000D03*
%TO.P,U1,12,SCL*%
%TO.N,GYRO_SCL*%
X145262500Y-92250000D03*
%TD*%
D38*
%TO.N,GND*%
X151800000Y-104500000D03*
X151175000Y-101525000D03*
X153331910Y-101793192D03*
X156000000Y-94900000D03*
X150850000Y-108000000D03*
X155000000Y-101800000D03*
X145800000Y-110500000D03*
X146800000Y-106500000D03*
X154575000Y-103050000D03*
X145299702Y-91300130D03*
X155275500Y-98600000D03*
X146000000Y-89500000D03*
X152650000Y-98900000D03*
X150200000Y-88400000D03*
X143700000Y-90800000D03*
X154186058Y-104738942D03*
X151124459Y-100725000D03*
X152200000Y-106700000D03*
X150900000Y-95200000D03*
X148200000Y-107900000D03*
X153400000Y-104300000D03*
X150900000Y-92800000D03*
X148800000Y-101500000D03*
X141800000Y-104500000D03*
X149100000Y-99900000D03*
X153475000Y-105400000D03*
X151124459Y-99950000D03*
X157800000Y-101050000D03*
X152825000Y-106050000D03*
X155226422Y-103673558D03*
X144385816Y-93782565D03*
X152100000Y-97800000D03*
X149700000Y-94000000D03*
X147100000Y-91200000D03*
X145800000Y-108500000D03*
X152325000Y-99950000D03*
X152100000Y-94000000D03*
X144800000Y-104500000D03*
X147800000Y-104500000D03*
X152325541Y-100650000D03*
X156525000Y-102350000D03*
X152300000Y-102850000D03*
X151775000Y-102125000D03*
X152675000Y-101325000D03*
X157150000Y-101700000D03*
X155875000Y-103000000D03*
X146800000Y-102500000D03*
X152943130Y-103481870D03*
X153969370Y-102430630D03*
X144370000Y-95330000D03*
X151550000Y-107350000D03*
X160900000Y-94800000D03*
X150900000Y-94000000D03*
X140800000Y-106500000D03*
X155300000Y-90400000D03*
X142700000Y-92400000D03*
X143800000Y-102500000D03*
X143800000Y-106500000D03*
%TO.N,VCC*%
X148400000Y-89800000D03*
D39*
X139600000Y-99200000D03*
X161700000Y-100000000D03*
D38*
X144600000Y-90300000D03*
X143262289Y-93620533D03*
X160182886Y-98461746D03*
X153350000Y-89750000D03*
%TO.N,GYRO_INT*%
X147038691Y-93152422D03*
X142900000Y-91500000D03*
%TD*%
D40*
%TO.N,Net-(AE1-Pad1)*%
X155492947Y-104992947D02*
X156474695Y-105974695D01*
%TO.N,/MCU + RF/ANT*%
X151723959Y-101223959D02*
X151723959Y-99593641D01*
X152710589Y-102210589D02*
X151723959Y-101223959D01*
D41*
%TO.N,GND*%
X155450000Y-90550000D02*
X155300000Y-90400000D01*
X148600000Y-99480000D02*
X148680000Y-99480000D01*
X147300000Y-91800000D02*
X147100000Y-91600000D01*
X148680000Y-99480000D02*
X149100000Y-99900000D01*
X155500000Y-94700000D02*
X155700000Y-94900000D01*
X155675500Y-99000000D02*
X155275500Y-98600000D01*
X155450000Y-94330000D02*
X155450000Y-94650000D01*
X155700000Y-94900000D02*
X156000000Y-94900000D01*
X156120000Y-99000000D02*
X155675500Y-99000000D01*
X154880000Y-89500000D02*
X154880000Y-89980000D01*
X152300000Y-96950000D02*
X152300000Y-97600000D01*
X154880000Y-89980000D02*
X155300000Y-90400000D01*
X150200000Y-88400000D02*
X150790000Y-88400000D01*
X145250000Y-91349832D02*
X145299702Y-91300130D01*
X144385816Y-93782565D02*
X144617435Y-93782565D01*
X147100000Y-91600000D02*
X147100000Y-91200000D01*
X143737500Y-92750000D02*
X143050000Y-92750000D01*
X145250000Y-91737500D02*
X145250000Y-91349832D01*
X156380000Y-95280000D02*
X156000000Y-94900000D01*
X144750000Y-93262500D02*
X144750000Y-93650000D01*
X143750000Y-90850000D02*
X143700000Y-90800000D01*
X147950000Y-91800000D02*
X147300000Y-91800000D01*
X151900000Y-96950000D02*
X151900000Y-97600000D01*
X154580000Y-98600000D02*
X155275500Y-98600000D01*
X160339411Y-94239411D02*
X160900000Y-94800000D01*
X155450000Y-94650000D02*
X155500000Y-94700000D01*
X161200000Y-95100000D02*
X160900000Y-94800000D01*
X151900000Y-97600000D02*
X152100000Y-97800000D01*
X143050000Y-92750000D02*
X142700000Y-92400000D01*
D42*
X144900000Y-95330000D02*
X144370000Y-95330000D01*
D41*
X149700000Y-99880000D02*
X149120000Y-99880000D01*
D43*
X157721142Y-97076777D02*
X158923223Y-97076777D01*
D44*
X155046016Y-101800000D02*
X155648008Y-101198008D01*
D41*
X160478858Y-96723223D02*
X161200000Y-96002081D01*
D42*
X143800000Y-95330000D02*
X144370000Y-95330000D01*
D41*
X146820000Y-89500000D02*
X146000000Y-89500000D01*
X155450000Y-91470000D02*
X155450000Y-90550000D01*
D42*
X140741025Y-98036474D02*
X139450000Y-96745449D01*
D43*
X158923223Y-97076777D02*
X159276777Y-96723223D01*
X159276777Y-96723223D02*
X160478858Y-96723223D01*
D42*
X140741025Y-98737083D02*
X140741025Y-98036474D01*
D41*
X149120000Y-99880000D02*
X149100000Y-99900000D01*
X151725000Y-98900000D02*
X152650000Y-98900000D01*
X156380000Y-95600000D02*
X156380000Y-95280000D01*
X143750000Y-91737500D02*
X143750000Y-90850000D01*
X149610000Y-88400000D02*
X150200000Y-88400000D01*
X144382565Y-93782565D02*
X144385816Y-93782565D01*
X152300000Y-97600000D02*
X152100000Y-97800000D01*
X161200000Y-96002081D02*
X161200000Y-95100000D01*
X144250000Y-93650000D02*
X144382565Y-93782565D01*
X144250000Y-93262500D02*
X144250000Y-93650000D01*
X144617435Y-93782565D02*
X144750000Y-93650000D01*
%TO.N,/MCU + RF/ANT2*%
X151500000Y-96950000D02*
X151500000Y-98175000D01*
X151500000Y-98175000D02*
X151725000Y-98400000D01*
%TO.N,/MCU + RF/ANT1*%
X151100000Y-96950000D02*
X151100000Y-98175000D01*
X151100000Y-98175000D02*
X150875000Y-98400000D01*
%TO.N,VDD_PA*%
X150700000Y-96950000D02*
X150699999Y-97714029D01*
X149700000Y-98400000D02*
X149700000Y-98920000D01*
X149720000Y-98900000D02*
X149700000Y-98920000D01*
X150000481Y-98099519D02*
X149700000Y-98400000D01*
X150875000Y-98900000D02*
X149720000Y-98900000D01*
X150314509Y-98099519D02*
X150000481Y-98099519D01*
X150699999Y-97714029D02*
X150314509Y-98099519D01*
%TO.N,VCC*%
X145780480Y-93244520D02*
X145762500Y-93262500D01*
X143750000Y-93650000D02*
X143750000Y-94320000D01*
X143750000Y-94320000D02*
X143800000Y-94370000D01*
X152700000Y-97600000D02*
X153100000Y-98000000D01*
D44*
X160182886Y-98461746D02*
X160153869Y-98461746D01*
D41*
X143750000Y-93262500D02*
X143750000Y-93650000D01*
D44*
X161700000Y-100000000D02*
X160182886Y-98482886D01*
D41*
X153100000Y-90000000D02*
X153100000Y-91050000D01*
X152700000Y-96950000D02*
X152700000Y-97600000D01*
D44*
X141100000Y-100700000D02*
X145000000Y-100700000D01*
D41*
X153100000Y-98000000D02*
X153100000Y-98500000D01*
X153100000Y-98500000D02*
X153200000Y-98600000D01*
X153600000Y-89500000D02*
X153920000Y-89500000D01*
X143720533Y-93620533D02*
X143750000Y-93650000D01*
D44*
X160153869Y-98461746D02*
X158715615Y-99900000D01*
X145000000Y-100700000D02*
X146381089Y-99318911D01*
D41*
X144250000Y-90650000D02*
X144600000Y-90300000D01*
X145780480Y-92800000D02*
X145780480Y-93244520D01*
X144250000Y-91737500D02*
X144250000Y-90650000D01*
X153200000Y-98600000D02*
X153620000Y-98600000D01*
X144600000Y-90300000D02*
X146010000Y-90300000D01*
D44*
X139600000Y-99200000D02*
X141100000Y-100700000D01*
D41*
X145952500Y-93262500D02*
X146400000Y-93710000D01*
X153100000Y-90000000D02*
X153350000Y-89750000D01*
X148400000Y-89800000D02*
X148100000Y-89500000D01*
X148400000Y-89800000D02*
X148700000Y-90100000D01*
D44*
X154451992Y-100051992D02*
X153620000Y-99220000D01*
X158715615Y-99900000D02*
X154603984Y-99900000D01*
X154603984Y-99900000D02*
X154451992Y-100051992D01*
D41*
X145250000Y-93262500D02*
X145762500Y-93262500D01*
X148700000Y-90100000D02*
X148700000Y-91050000D01*
X153350000Y-89750000D02*
X153600000Y-89500000D01*
X146010000Y-90300000D02*
X146400000Y-90690000D01*
X153100000Y-96950000D02*
X153100000Y-98000000D01*
D44*
X153620000Y-99220000D02*
X153620000Y-98600000D01*
D41*
X145262500Y-92750000D02*
X145730480Y-92750000D01*
X145762500Y-93262500D02*
X145952500Y-93262500D01*
X144900000Y-94370000D02*
X145830000Y-94370000D01*
X146230000Y-94370000D02*
X146400000Y-94200000D01*
X148100000Y-89500000D02*
X147780000Y-89500000D01*
X143262289Y-93620533D02*
X143720533Y-93620533D01*
D44*
X160182886Y-98482886D02*
X160182886Y-98461746D01*
D41*
X145730480Y-92750000D02*
X145780480Y-92800000D01*
X143800000Y-94370000D02*
X144900000Y-94370000D01*
X146400000Y-94200000D02*
X146400000Y-93710000D01*
D42*
%TO.N,Net-(BZ1-Pad2)*%
X139333975Y-101833975D02*
X140318911Y-102818911D01*
X139333975Y-100300000D02*
X139333975Y-101833975D01*
D41*
%TO.N,Net-(C4-Pad2)*%
X148600000Y-98520000D02*
X148600000Y-98100000D01*
X150100000Y-97700000D02*
X150149022Y-97700000D01*
X148600000Y-98100000D02*
X148900000Y-97800000D01*
X150300480Y-97548542D02*
X150300480Y-97000000D01*
X148900000Y-97800000D02*
X149000000Y-97700000D01*
X149000000Y-97700000D02*
X150100000Y-97700000D01*
X150149022Y-97700000D02*
X150300480Y-97548542D01*
%TO.N,Net-(C5-Pad1)*%
X154900000Y-95600000D02*
X154700000Y-95400000D01*
X155420000Y-95600000D02*
X154900000Y-95600000D01*
X154700000Y-95400000D02*
X153850000Y-95400000D01*
D44*
%TO.N,Net-(C6-Pad1)*%
X153389411Y-102889411D02*
X154807053Y-104307053D01*
D41*
%TO.N,XL1*%
X154900000Y-92400000D02*
X155420000Y-92400000D01*
X157350000Y-92250000D02*
X157170000Y-92430000D01*
X153850000Y-92600000D02*
X154700000Y-92600000D01*
X154700000Y-92600000D02*
X154900000Y-92400000D01*
X157350000Y-91750000D02*
X157350000Y-92250000D01*
X157170000Y-92430000D02*
X155450000Y-92430000D01*
%TO.N,/MCU + RF/XC1*%
X157100000Y-99000000D02*
X157550000Y-98550000D01*
X153850000Y-96200000D02*
X154334994Y-96200000D01*
X154834514Y-96699520D02*
X155699520Y-96699520D01*
X154334994Y-96200000D02*
X154834514Y-96699520D01*
X157550000Y-98550000D02*
X157900000Y-98900000D01*
X157900000Y-98900000D02*
X158302081Y-98900000D01*
X157080000Y-99000000D02*
X157100000Y-99000000D01*
X155699520Y-96699520D02*
X157550000Y-98550000D01*
X158302081Y-98900000D02*
X158923223Y-98278858D01*
%TO.N,XL2*%
X157350000Y-93750000D02*
X156970000Y-93370000D01*
X156970000Y-93370000D02*
X155450000Y-93370000D01*
X157350000Y-94250000D02*
X157350000Y-93750000D01*
X155080000Y-93000000D02*
X155450000Y-93370000D01*
X153850000Y-93000000D02*
X155080000Y-93000000D01*
%TO.N,/MCU + RF/XC2*%
X157000000Y-96300000D02*
X155000000Y-96300000D01*
X154500000Y-95800000D02*
X153850000Y-95800000D01*
X159276777Y-93944401D02*
X159660589Y-93560589D01*
X157778858Y-95521142D02*
X157000000Y-96300000D01*
X159276777Y-95521142D02*
X159276777Y-93944401D01*
X159276777Y-95521142D02*
X157778858Y-95521142D01*
X155000000Y-96300000D02*
X154500000Y-95800000D01*
%TO.N,SWDCLK*%
X146200000Y-97200000D02*
X147200000Y-96200000D01*
X147200000Y-96200000D02*
X147950000Y-96200000D01*
X141639403Y-97200000D02*
X146200000Y-97200000D01*
X140085000Y-95645597D02*
X141639403Y-97200000D01*
%TO.N,SWDIO*%
X145844984Y-96699520D02*
X146744504Y-95800000D01*
X146744504Y-95800000D02*
X147950000Y-95800000D01*
X141502204Y-95802204D02*
X142399520Y-96699520D01*
X140720000Y-94545744D02*
X141502204Y-95327948D01*
X142399520Y-96699520D02*
X145844984Y-96699520D01*
X141502204Y-95327948D02*
X141502204Y-95802204D01*
%TO.N,Net-(Q1-Pad1)*%
X142133756Y-99862917D02*
X142755000Y-99241673D01*
X141391025Y-99862917D02*
X142133756Y-99862917D01*
%TO.N,GYRO_SCL*%
X147950000Y-92600000D02*
X146490000Y-92600000D01*
X146490000Y-92600000D02*
X146400000Y-92690000D01*
X145960000Y-92250000D02*
X146400000Y-92690000D01*
X145262500Y-92250000D02*
X145960000Y-92250000D01*
%TO.N,GYRO_SDA*%
X146890000Y-92200000D02*
X146400000Y-91710000D01*
X144750000Y-91050000D02*
X145100000Y-90700000D01*
X145100000Y-90700000D02*
X145441344Y-90700000D01*
X146400000Y-91658656D02*
X146400000Y-91710000D01*
X144750000Y-91737500D02*
X144750000Y-91050000D01*
X145441344Y-90700000D02*
X146400000Y-91658656D01*
X147950000Y-92200000D02*
X146890000Y-92200000D01*
%TO.N,/MCU + RF/BUZZER*%
X148446634Y-97653366D02*
X148700000Y-97400000D01*
X142949961Y-97653366D02*
X148446634Y-97653366D01*
X148700000Y-97400000D02*
X148700000Y-96950000D01*
X142245000Y-98358327D02*
X142949961Y-97653366D01*
%TO.N,GYRO_INT*%
X143400978Y-92250000D02*
X143737500Y-92250000D01*
X147191113Y-93000000D02*
X147038691Y-93152422D01*
X142900000Y-91749022D02*
X143400978Y-92250000D01*
X147950000Y-93000000D02*
X147191113Y-93000000D01*
X142900000Y-91500000D02*
X142900000Y-91749022D01*
%TO.N,/MCU + RF/LED_A*%
X150300000Y-89515000D02*
X150285000Y-89500000D01*
X150300000Y-91050000D02*
X150300000Y-89515000D01*
%TO.N,Net-(D1-Pad1)*%
X152485000Y-89500000D02*
X152485000Y-88785000D01*
X152485000Y-88785000D02*
X152100000Y-88400000D01*
X152100000Y-88400000D02*
X151810000Y-88400000D01*
%TO.N,Net-(D2-Pad1)*%
X148590000Y-89190000D02*
X148900000Y-89500000D01*
X148900000Y-89500000D02*
X149315000Y-89500000D01*
X148590000Y-88400000D02*
X148590000Y-89190000D01*
%TO.N,/MCU + RF/LED_B*%
X151500000Y-89515000D02*
X151515000Y-89500000D01*
X151500000Y-91050000D02*
X151500000Y-89515000D01*
%TO.N,BOOT*%
X145600000Y-96200000D02*
X142700000Y-96200000D01*
X146210000Y-95400000D02*
X146000000Y-95610000D01*
X142700000Y-96200000D02*
X142200000Y-95700000D01*
X142200000Y-95700000D02*
X142200000Y-94290892D01*
X147950000Y-95400000D02*
X146210000Y-95400000D01*
X146000000Y-95610000D02*
X146000000Y-95800000D01*
X146000000Y-95800000D02*
X145600000Y-96200000D01*
X142200000Y-94290892D02*
X141355000Y-93445892D01*
%TD*%
%TA.AperFunction,Conductor*%
%TO.N,GND*%
G36*
X151095899Y-99504101D02*
G01*
X151100000Y-99514000D01*
X151100000Y-99650000D01*
X151284900Y-99650000D01*
X151294799Y-99654101D01*
X151296541Y-99656222D01*
X151305448Y-99669552D01*
X151306590Y-99670315D01*
X151338539Y-99691663D01*
X151341659Y-99694516D01*
X151342288Y-99695296D01*
X151345039Y-99700967D01*
X151348108Y-99714406D01*
X151348459Y-99717523D01*
X151348459Y-101182386D01*
X151348145Y-101185330D01*
X151343690Y-101206025D01*
X151343826Y-101207171D01*
X151348362Y-101245498D01*
X151348459Y-101247144D01*
X151348459Y-101255152D01*
X151348553Y-101255716D01*
X151348553Y-101255718D01*
X151352022Y-101276561D01*
X151352115Y-101277213D01*
X151358383Y-101330169D01*
X151358884Y-101331212D01*
X151358885Y-101331216D01*
X151361442Y-101336540D01*
X151362632Y-101340302D01*
X151363792Y-101347272D01*
X151364343Y-101348293D01*
X151389121Y-101394214D01*
X151389418Y-101394798D01*
X151412496Y-101442859D01*
X151416053Y-101447090D01*
X151418072Y-101449109D01*
X151420494Y-101452360D01*
X151423153Y-101457288D01*
X151424001Y-101458072D01*
X151424002Y-101458073D01*
X151463940Y-101494991D01*
X151464336Y-101495373D01*
X152041728Y-102072765D01*
X152043761Y-102075342D01*
X152054756Y-102093262D01*
X152092018Y-102133528D01*
X152092814Y-102134469D01*
X152118537Y-102167798D01*
X152119308Y-102168904D01*
X152136774Y-102196702D01*
X152137364Y-102197736D01*
X152137749Y-102198483D01*
X152138640Y-102209161D01*
X152135204Y-102214796D01*
X152100000Y-102250000D01*
X152153866Y-102303866D01*
X152157123Y-102308977D01*
X152191955Y-102404679D01*
X152222402Y-102444358D01*
X152476820Y-102698775D01*
X152516499Y-102729223D01*
X152517503Y-102729588D01*
X152517504Y-102729589D01*
X152612201Y-102764055D01*
X152617312Y-102767312D01*
X152832688Y-102982688D01*
X152835945Y-102987799D01*
X152865913Y-103070136D01*
X152870777Y-103083501D01*
X152901224Y-103123180D01*
X153155642Y-103377597D01*
X153195321Y-103408045D01*
X153196325Y-103408410D01*
X153196326Y-103408411D01*
X153291023Y-103442877D01*
X153296134Y-103446134D01*
X153527438Y-103677438D01*
X153530780Y-103682790D01*
X153556322Y-103757182D01*
X153556969Y-103758050D01*
X153556970Y-103758052D01*
X153596721Y-103811381D01*
X153597275Y-103812124D01*
X153887876Y-104102725D01*
X153943361Y-104143970D01*
X154017129Y-104169155D01*
X154022505Y-104172505D01*
X154230432Y-104380432D01*
X154233774Y-104385785D01*
X154270428Y-104492537D01*
X154311381Y-104547479D01*
X154484077Y-104720175D01*
X154488178Y-104730074D01*
X154484063Y-104739988D01*
X153961276Y-105261276D01*
X150600000Y-101900000D01*
X150600000Y-99500000D01*
X151086000Y-99500000D01*
X151095899Y-99504101D01*
G37*
%TD.AperFunction*%
%TD*%
%TA.AperFunction,Conductor*%
%TO.N,GND*%
G36*
X152438506Y-97770002D02*
G01*
X152463726Y-97791362D01*
X152467426Y-97795442D01*
X152473532Y-97805348D01*
X152495193Y-97821820D01*
X152495307Y-97821906D01*
X152508136Y-97833107D01*
X152762596Y-98087568D01*
X152796621Y-98149880D01*
X152799500Y-98176663D01*
X152799500Y-98447634D01*
X152799304Y-98450307D01*
X152797575Y-98455342D01*
X152798011Y-98466964D01*
X152798011Y-98466966D01*
X152799411Y-98504255D01*
X152799500Y-98508981D01*
X152799500Y-98527948D01*
X152800382Y-98532683D01*
X152800610Y-98536209D01*
X152801774Y-98567208D01*
X152806364Y-98577893D01*
X152807401Y-98582493D01*
X152810962Y-98594214D01*
X152812661Y-98598617D01*
X152814791Y-98610053D01*
X152820895Y-98619955D01*
X152827727Y-98631039D01*
X152836231Y-98647411D01*
X152842451Y-98661888D01*
X152842453Y-98661892D01*
X152845964Y-98670063D01*
X152849978Y-98674949D01*
X152852148Y-98677119D01*
X152854218Y-98679402D01*
X152854058Y-98679547D01*
X152861177Y-98688553D01*
X152867338Y-98695347D01*
X152868587Y-98697926D01*
X152870267Y-98700051D01*
X152873532Y-98705348D01*
X152873533Y-98705349D01*
X152872492Y-98705991D01*
X152898281Y-98759246D01*
X152900000Y-98779987D01*
X152900000Y-99000000D01*
X153013095Y-99113095D01*
X153047121Y-99175407D01*
X153050000Y-99202190D01*
X153050000Y-99650000D01*
X152300000Y-99650000D01*
X152300000Y-99000000D01*
X152292207Y-99000000D01*
X152289043Y-98997258D01*
X152250659Y-98937532D01*
X152250659Y-98866536D01*
X152276331Y-98819521D01*
X152293247Y-98800000D01*
X152300000Y-98800000D01*
X152300000Y-98150000D01*
X152069650Y-98034825D01*
X152017667Y-97986471D01*
X152000000Y-97922128D01*
X152000000Y-97876000D01*
X152020002Y-97807879D01*
X152073658Y-97761386D01*
X152126000Y-97750000D01*
X152370385Y-97750000D01*
X152438506Y-97770002D01*
G37*
%TD.AperFunction*%
%TD*%
%TA.AperFunction,Conductor*%
%TO.N,GND*%
G36*
X153051946Y-99651965D02*
G01*
X153707575Y-100314000D01*
X154499115Y-101113275D01*
X155395450Y-100304108D01*
X155404830Y-100300500D01*
X158779048Y-100300500D01*
X158780070Y-100300168D01*
X158782206Y-100300000D01*
X158902956Y-100300000D01*
X158912855Y-100304101D01*
X158916956Y-100314000D01*
X158912841Y-100323914D01*
X157595597Y-101637380D01*
X155241044Y-103985178D01*
X155231140Y-103989264D01*
X155221261Y-103985163D01*
X155047479Y-103811381D01*
X154991995Y-103770136D01*
X154946435Y-103754582D01*
X154885961Y-103733935D01*
X154880585Y-103730585D01*
X154643705Y-103493705D01*
X154640363Y-103488352D01*
X154629925Y-103457952D01*
X154629572Y-103456924D01*
X154588619Y-103401982D01*
X154298018Y-103111381D01*
X154242533Y-103070136D01*
X154211602Y-103059576D01*
X154206226Y-103056226D01*
X153946134Y-102796134D01*
X153942877Y-102791023D01*
X153908411Y-102696326D01*
X153908410Y-102696325D01*
X153908045Y-102695321D01*
X153877598Y-102655642D01*
X153623180Y-102401225D01*
X153583501Y-102370777D01*
X153582497Y-102370412D01*
X153582496Y-102370411D01*
X153487799Y-102335945D01*
X153482688Y-102332688D01*
X153267312Y-102117312D01*
X153264055Y-102112201D01*
X153229589Y-102017504D01*
X153229588Y-102017503D01*
X153229223Y-102016499D01*
X153198776Y-101976820D01*
X152944358Y-101722403D01*
X152904679Y-101691955D01*
X152903675Y-101691590D01*
X152903674Y-101691589D01*
X152808977Y-101657123D01*
X152803866Y-101653866D01*
X152750000Y-101600000D01*
X152714795Y-101635205D01*
X152704896Y-101639306D01*
X152698492Y-101637755D01*
X152697763Y-101637380D01*
X152696719Y-101636785D01*
X152694205Y-101635205D01*
X152668897Y-101619303D01*
X152667792Y-101618533D01*
X152634469Y-101592814D01*
X152633528Y-101592018D01*
X152593262Y-101554756D01*
X152574577Y-101543041D01*
X152572116Y-101541079D01*
X152103560Y-101072523D01*
X152099459Y-101062624D01*
X152099459Y-99713597D01*
X152100006Y-99709722D01*
X152101887Y-99703191D01*
X152104562Y-99698131D01*
X152104827Y-99697812D01*
X152105748Y-99696700D01*
X152105981Y-99696427D01*
X152107075Y-99695175D01*
X152109839Y-99692747D01*
X152143404Y-99670319D01*
X152144552Y-99669552D01*
X152153459Y-99656222D01*
X152162369Y-99650269D01*
X152165100Y-99650000D01*
X153050000Y-99650000D01*
X153051946Y-99651965D01*
G37*
%TD.AperFunction*%
%TD*%
%TA.AperFunction,Conductor*%
%TO.N,GND*%
G36*
X149022815Y-99020002D02*
G01*
X149071682Y-99079205D01*
X149200000Y-99400000D01*
X149482471Y-99400000D01*
X149487570Y-99400167D01*
X149490099Y-99400500D01*
X149699923Y-99400500D01*
X149909900Y-99400499D01*
X149912425Y-99400167D01*
X149917511Y-99400000D01*
X150481634Y-99400000D01*
X150549755Y-99420002D01*
X150596248Y-99473658D01*
X150600000Y-99483718D01*
X150600000Y-101900000D01*
X153961276Y-105261276D01*
X149514427Y-109695369D01*
X149503372Y-109706392D01*
X149441011Y-109740328D01*
X149370203Y-109735161D01*
X149334516Y-109714604D01*
X149169971Y-109579685D01*
X149165335Y-109577046D01*
X149165332Y-109577044D01*
X148974845Y-109468613D01*
X148974846Y-109468613D01*
X148970202Y-109465970D01*
X148818427Y-109410878D01*
X148759144Y-109389359D01*
X148759140Y-109389358D01*
X148754129Y-109387539D01*
X148748880Y-109386590D01*
X148748877Y-109386589D01*
X148665780Y-109371563D01*
X148527931Y-109346636D01*
X148523792Y-109346441D01*
X148523785Y-109346440D01*
X148505330Y-109345570D01*
X148505323Y-109345570D01*
X148503842Y-109345500D01*
X148342288Y-109345500D01*
X148262556Y-109352265D01*
X148176267Y-109359587D01*
X148176263Y-109359588D01*
X148170956Y-109360038D01*
X148165801Y-109361376D01*
X148165795Y-109361377D01*
X148064998Y-109387539D01*
X147948461Y-109417786D01*
X147841497Y-109465970D01*
X147743738Y-109510007D01*
X147743735Y-109510008D01*
X147738877Y-109512197D01*
X147548197Y-109640570D01*
X147544340Y-109644249D01*
X147544338Y-109644251D01*
X147490753Y-109695369D01*
X147381872Y-109799236D01*
X147244658Y-109983658D01*
X147140480Y-110188562D01*
X147072315Y-110408089D01*
X147042112Y-110635964D01*
X147050736Y-110865669D01*
X147051831Y-110870887D01*
X147079611Y-111003284D01*
X147097939Y-111090637D01*
X147182372Y-111304436D01*
X147301621Y-111500952D01*
X147305116Y-111504980D01*
X147305117Y-111504981D01*
X147411064Y-111627073D01*
X147440604Y-111691633D01*
X147430550Y-111761914D01*
X147404866Y-111798877D01*
X147311471Y-111892004D01*
X147249110Y-111925940D01*
X147188623Y-111924140D01*
X146566296Y-111750383D01*
X146559624Y-111748317D01*
X145916060Y-111529231D01*
X145909486Y-111526786D01*
X145279161Y-111272118D01*
X145272717Y-111269302D01*
X144903597Y-111095607D01*
X144657626Y-110979862D01*
X144651347Y-110976691D01*
X144053343Y-110653351D01*
X144047250Y-110649833D01*
X143795968Y-110495244D01*
X143748428Y-110442513D01*
X143736944Y-110372452D01*
X143765161Y-110307303D01*
X143798988Y-110278809D01*
X145302289Y-109410878D01*
X145315123Y-109399623D01*
X145337792Y-109379744D01*
X145337794Y-109379742D01*
X145347120Y-109371563D01*
X145352804Y-109360038D01*
X145376910Y-109311152D01*
X145382398Y-109300024D01*
X145387616Y-109220431D01*
X145368448Y-109163967D01*
X144348700Y-107397711D01*
X144337445Y-107384877D01*
X144317566Y-107362208D01*
X144317564Y-107362206D01*
X144309385Y-107352880D01*
X144298259Y-107347393D01*
X144298257Y-107347392D01*
X144272407Y-107334645D01*
X144237846Y-107317602D01*
X144225465Y-107316790D01*
X144225464Y-107316790D01*
X144193993Y-107314727D01*
X144158253Y-107312384D01*
X144133550Y-107320770D01*
X144107644Y-107329564D01*
X144107641Y-107329566D01*
X144101789Y-107331552D01*
X142335533Y-108351300D01*
X142330882Y-108355379D01*
X142300030Y-108382434D01*
X142300028Y-108382436D01*
X142290702Y-108390615D01*
X142255424Y-108462154D01*
X142250206Y-108541747D01*
X142269374Y-108598211D01*
X142272467Y-108603568D01*
X142795013Y-109508646D01*
X142811751Y-109577641D01*
X142788531Y-109644733D01*
X142732723Y-109688620D01*
X142662048Y-109695369D01*
X142608324Y-109670937D01*
X142362769Y-109479088D01*
X142357361Y-109474614D01*
X141845860Y-109026828D01*
X141840698Y-109022048D01*
X141354992Y-108546411D01*
X141350104Y-108541349D01*
X140891719Y-108039353D01*
X140887121Y-108034027D01*
X140457456Y-107507204D01*
X140453163Y-107501629D01*
X140053582Y-106951654D01*
X140049607Y-106945848D01*
X139814988Y-106581791D01*
X139681348Y-106374422D01*
X139677719Y-106368432D01*
X139341924Y-105777324D01*
X139338624Y-105771119D01*
X139319610Y-105732814D01*
X139036352Y-105162195D01*
X139033403Y-105155813D01*
X138984514Y-105041747D01*
X148312384Y-105041747D01*
X148331552Y-105098211D01*
X149351300Y-106864467D01*
X149355379Y-106869118D01*
X149382434Y-106899970D01*
X149382436Y-106899972D01*
X149390615Y-106909298D01*
X149401741Y-106914785D01*
X149401743Y-106914786D01*
X149426384Y-106926937D01*
X149462154Y-106944576D01*
X149474535Y-106945388D01*
X149474536Y-106945388D01*
X149506007Y-106947451D01*
X149541747Y-106949794D01*
X149573284Y-106939088D01*
X149592356Y-106932614D01*
X149592359Y-106932612D01*
X149598211Y-106930626D01*
X151364467Y-105910878D01*
X151377301Y-105899623D01*
X151399970Y-105879744D01*
X151399972Y-105879742D01*
X151409298Y-105871563D01*
X151444576Y-105800024D01*
X151449794Y-105720431D01*
X151430626Y-105663967D01*
X150410878Y-103897711D01*
X150394428Y-103878953D01*
X150379744Y-103862208D01*
X150379742Y-103862206D01*
X150371563Y-103852880D01*
X150360437Y-103847393D01*
X150360435Y-103847392D01*
X150334585Y-103834645D01*
X150300024Y-103817602D01*
X150287643Y-103816790D01*
X150287642Y-103816790D01*
X150256171Y-103814727D01*
X150220431Y-103812384D01*
X150195728Y-103820770D01*
X150169822Y-103829564D01*
X150169819Y-103829566D01*
X150163967Y-103831552D01*
X148397711Y-104851300D01*
X148393060Y-104855379D01*
X148362208Y-104882434D01*
X148362206Y-104882436D01*
X148352880Y-104890615D01*
X148317602Y-104962154D01*
X148312384Y-105041747D01*
X138984514Y-105041747D01*
X138945631Y-104951026D01*
X138765596Y-104530973D01*
X138763009Y-104524438D01*
X138712915Y-104386804D01*
X138530502Y-103885630D01*
X138528281Y-103878953D01*
X138458433Y-103647606D01*
X138331795Y-103228157D01*
X138329953Y-103221379D01*
X138314682Y-103158253D01*
X138220824Y-102770292D01*
X138204368Y-102702271D01*
X138207791Y-102631357D01*
X138249010Y-102573551D01*
X138264311Y-102563251D01*
X138565790Y-102390977D01*
X138634856Y-102374548D01*
X138701843Y-102398067D01*
X138745482Y-102454069D01*
X138750587Y-102473763D01*
X138750206Y-102479569D01*
X138769374Y-102536033D01*
X139789122Y-104302289D01*
X139793201Y-104306940D01*
X139820256Y-104337792D01*
X139820258Y-104337794D01*
X139828437Y-104347120D01*
X139839563Y-104352607D01*
X139839565Y-104352608D01*
X139864206Y-104364759D01*
X139899976Y-104382398D01*
X139912357Y-104383210D01*
X139912358Y-104383210D01*
X139943829Y-104385273D01*
X139979569Y-104387616D01*
X140011106Y-104376910D01*
X140030178Y-104370436D01*
X140030181Y-104370434D01*
X140036033Y-104368448D01*
X141802289Y-103348700D01*
X141822194Y-103331244D01*
X141837792Y-103317566D01*
X141837794Y-103317564D01*
X141847120Y-103309385D01*
X141882398Y-103237846D01*
X141887616Y-103158253D01*
X141875710Y-103123180D01*
X141870436Y-103107644D01*
X141870434Y-103107641D01*
X141868448Y-103101789D01*
X140848700Y-101335533D01*
X140809385Y-101290702D01*
X140811314Y-101289010D01*
X140779782Y-101245819D01*
X140775565Y-101174948D01*
X140810334Y-101113047D01*
X140835845Y-101093803D01*
X140849760Y-101085852D01*
X140918830Y-101069423D01*
X140956007Y-101079379D01*
X140956429Y-101078080D01*
X140965864Y-101081146D01*
X140974696Y-101085646D01*
X140984485Y-101087197D01*
X140984493Y-101087199D01*
X140996427Y-101089089D01*
X141015647Y-101093703D01*
X141027133Y-101097435D01*
X141027140Y-101097436D01*
X141036567Y-101100499D01*
X141068477Y-101100499D01*
X141068481Y-101100500D01*
X145063433Y-101100500D01*
X145072864Y-101097436D01*
X145072868Y-101097435D01*
X145084353Y-101093703D01*
X145103578Y-101089087D01*
X145115512Y-101087197D01*
X145115513Y-101087197D01*
X145125304Y-101085646D01*
X145134137Y-101081145D01*
X145134141Y-101081144D01*
X145144906Y-101075659D01*
X145163166Y-101068095D01*
X145184090Y-101061296D01*
X145201893Y-101048361D01*
X145218745Y-101038035D01*
X145229502Y-101032554D01*
X145238342Y-101028050D01*
X145260905Y-101005487D01*
X145260909Y-101005484D01*
X145593465Y-100672928D01*
X145655777Y-100638902D01*
X145726592Y-100643967D01*
X145783428Y-100686514D01*
X145791679Y-100699023D01*
X145851300Y-100802289D01*
X145855379Y-100806940D01*
X145882434Y-100837792D01*
X145882436Y-100837794D01*
X145890615Y-100847120D01*
X145901741Y-100852607D01*
X145901743Y-100852608D01*
X145926385Y-100864759D01*
X145962154Y-100882398D01*
X145974535Y-100883210D01*
X145974536Y-100883210D01*
X146006007Y-100885273D01*
X146041747Y-100887616D01*
X146073284Y-100876910D01*
X146092356Y-100870436D01*
X146092359Y-100870434D01*
X146098211Y-100868448D01*
X147864467Y-99848700D01*
X147887761Y-99828272D01*
X147899970Y-99817566D01*
X147899972Y-99817564D01*
X147909298Y-99809385D01*
X147918783Y-99790152D01*
X147939088Y-99748974D01*
X147944576Y-99737846D01*
X147949794Y-99658253D01*
X147930626Y-99601789D01*
X147692302Y-99188999D01*
X147675564Y-99120005D01*
X147698784Y-99052913D01*
X147754591Y-99009026D01*
X147801421Y-99000000D01*
X148954694Y-99000000D01*
X149022815Y-99020002D01*
G37*
%TD.AperFunction*%
%TD*%
%TA.AperFunction,Conductor*%
%TO.N,/MCU + RF/ANT*%
G36*
X152453686Y-101705583D02*
G01*
X152477721Y-101727825D01*
X152501153Y-101749509D01*
X152550607Y-101787677D01*
X152550836Y-101787821D01*
X152550839Y-101787823D01*
X152595144Y-101815661D01*
X152595149Y-101815664D01*
X152595353Y-101815792D01*
X152636962Y-101837206D01*
X152637113Y-101837274D01*
X152677001Y-101855269D01*
X152716766Y-101873208D01*
X152717309Y-101873470D01*
X152758199Y-101894514D01*
X152759070Y-101895010D01*
X152802921Y-101922563D01*
X152803844Y-101923208D01*
X152852435Y-101960710D01*
X152853231Y-101961382D01*
X152896452Y-102001378D01*
X152903038Y-102007473D01*
X152906782Y-102015607D01*
X152906191Y-102019760D01*
X152811433Y-102304033D01*
X152805565Y-102310798D01*
X152804033Y-102311433D01*
X152519760Y-102406191D01*
X152510828Y-102405556D01*
X152507473Y-102403038D01*
X152461385Y-102353234D01*
X152460710Y-102352435D01*
X152423208Y-102303844D01*
X152422563Y-102302921D01*
X152395010Y-102259070D01*
X152394514Y-102258199D01*
X152373470Y-102217309D01*
X152373208Y-102216766D01*
X152355269Y-102177001D01*
X152337274Y-102137113D01*
X152337206Y-102136962D01*
X152315792Y-102095353D01*
X152287677Y-102050607D01*
X152263870Y-102019760D01*
X152249683Y-102001378D01*
X152249679Y-102001373D01*
X152249509Y-102001153D01*
X152227825Y-101977721D01*
X152205583Y-101953686D01*
X152202479Y-101945286D01*
X152205897Y-101937466D01*
X152437466Y-101705897D01*
X152445739Y-101702470D01*
X152453686Y-101705583D01*
G37*
%TD.AperFunction*%
%TD*%
%TA.AperFunction,Conductor*%
%TO.N,/MCU + RF/ANT*%
G36*
X151726535Y-99367176D02*
G01*
X151989736Y-99399739D01*
X151997524Y-99404155D01*
X151999998Y-99411350D01*
X151999998Y-99462834D01*
X151999921Y-99464176D01*
X151997243Y-99487372D01*
X151996625Y-99490001D01*
X151989753Y-99509044D01*
X151988767Y-99511116D01*
X151978406Y-99528294D01*
X151977562Y-99529510D01*
X151964470Y-99546043D01*
X151964108Y-99546479D01*
X151949860Y-99562783D01*
X151949352Y-99563364D01*
X151934427Y-99581369D01*
X151920719Y-99601470D01*
X151909434Y-99624847D01*
X151901779Y-99652677D01*
X151901734Y-99653214D01*
X151901733Y-99653218D01*
X151899747Y-99676791D01*
X151895637Y-99684748D01*
X151889661Y-99687403D01*
X151725528Y-99709678D01*
X151722390Y-99709678D01*
X151558270Y-99687405D01*
X151550533Y-99682896D01*
X151548184Y-99676775D01*
X151546232Y-99653172D01*
X151546232Y-99653171D01*
X151546188Y-99652641D01*
X151538667Y-99624731D01*
X151527583Y-99601242D01*
X151514125Y-99581007D01*
X151499479Y-99562856D01*
X151499417Y-99562783D01*
X151485017Y-99545839D01*
X151484661Y-99545399D01*
X151471825Y-99528724D01*
X151471003Y-99527505D01*
X151460865Y-99510215D01*
X151459915Y-99508162D01*
X151453210Y-99489004D01*
X151452624Y-99486417D01*
X151450070Y-99463138D01*
X151450000Y-99461862D01*
X151450000Y-99410381D01*
X151453427Y-99402108D01*
X151460307Y-99398764D01*
X151570350Y-99385565D01*
X151723712Y-99367170D01*
X151726535Y-99367176D01*
G37*
%TD.AperFunction*%
%TD*%
M02*
