M48
; DRILL file {KiCad (6.0.4)} date Wed Nov  9 14:02:04 2022
; FORMAT={-:-/ absolute / inch / decimal}
; #@! TF.CreationDate,2022-11-09T14:02:04+01:00
; #@! TF.GenerationSoftware,Kicad,Pcbnew,(6.0.4)
; #@! TF.FileFunction,Plated,1,4,PTH
FMAT,2
INCH
; #@! TA.AperFunction,Plated,PTH,ViaDrill
T1C0.0079
; #@! TA.AperFunction,Plated,PTH,ViaDrill
T2C0.0118
; #@! TA.AperFunction,Plated,PTH,ComponentDrill
T3C0.0256
%
G90
G05
T1
X5.5433Y-4.1929
X5.5827Y-4.1142
X5.6181Y-3.6378
X5.626Y-3.6024
X5.6402Y-3.6858
X5.6575Y-3.5748
X5.6614Y-4.0354
X5.6614Y-4.1929
X5.6839Y-3.7531
X5.6845Y-3.6922
X5.6929Y-3.5551
X5.7008Y-4.1142
X5.7205Y-3.5945
X5.7402Y-4.2717
X5.7402Y-4.3504
X5.748Y-3.5236
X5.7795Y-4.0354
X5.7795Y-4.1929
X5.7889Y-3.6674
X5.7913Y-3.5906
X5.8189Y-4.1142
X5.8346Y-4.248
X5.8425Y-3.5354
X5.8583Y-3.9961
X5.8701Y-3.9331
X5.8937Y-3.7008
X5.9134Y-3.4803
X5.939Y-4.252
X5.9409Y-3.6535
X5.9409Y-3.7008
X5.9409Y-3.748
X5.9498Y-3.935
X5.9498Y-3.9656
X5.9518Y-3.997
X5.9665Y-4.2264
X5.9754Y-4.0207
X5.9764Y-4.1142
X5.9882Y-3.7008
X5.9882Y-3.8504
X5.9921Y-4.2008
X5.9961Y-4.0492
X5.997Y-3.935
X5.9971Y-3.9626
X6.0098Y-3.8937
X6.0108Y-3.9892
X6.0167Y-4.1752
X6.0214Y-4.0741
X6.0367Y-4.0076
X6.0374Y-3.5335
X6.0394Y-4.1063
X6.0423Y-4.1496
X6.0618Y-4.0327
X6.0703Y-4.1236
X6.0856Y-4.0571
X6.1024Y-4.0079
X6.1113Y-4.0816
X6.1132Y-3.8819
X6.1142Y-3.5591
X6.1368Y-4.0551
X6.1417Y-3.7362
X6.1624Y-4.0295
X6.187Y-4.0039
X6.2126Y-3.9783
X6.3064Y-3.8764
X6.3346Y-3.7323
T2
X5.4961Y-3.9055
X6.3661Y-3.937
T3
X5.4902Y-3.8089
X5.5152Y-3.7656
X5.5402Y-3.7223
X5.5652Y-3.679
T0
M30
